<svg width="40" height="33" viewBox="0 0 40 33" fill="none" xmlns="http://www.w3.org/2000/svg">
<path d="M17.5 2.4999C16.6688 2.4999 16 3.16865 16 3.9999C16 4.83115 16.6688 5.4999 17.5 5.4999H21.1063L22.1313 7.39365L16 12.4999L13.1687 9.66865C12.4187 8.91865 11.4 8.4999 10.3375 8.4999H4C2.89375 8.4999 2 9.39365 2 10.4999V12.4999H8C13.525 12.4999 18 16.9749 18 22.4999C18 23.1874 17.9312 23.8562 17.8 24.4999H22.2C22.0688 23.8562 22 23.1874 22 22.4999C22 19.2374 23.5625 16.3374 25.9813 14.5124L26.9438 16.2999C25.15 17.7687 24 19.9999 24 22.4999C24 26.9187 27.5812 30.4999 32 30.4999C36.4188 30.4999 40 26.9187 40 22.4999C40 18.0812 36.4188 14.4999 32 14.4999C31.1562 14.4999 30.3438 14.6312 29.5812 14.8749L26.1375 8.4999H30C31.1063 8.4999 32 7.60615 32 6.4999V4.4999C32 3.39365 31.1063 2.4999 30 2.4999H28.725C28.2563 2.4999 27.8062 2.6624 27.4438 2.9624L24.4813 5.43115L23.6063 3.80615C23.1688 2.9999 22.325 2.49365 21.4062 2.49365L17.5 2.4999ZM28.9188 19.9499L30.6812 23.2124C31.075 23.9437 31.9875 24.2124 32.7125 23.8187C33.4375 23.4249 33.7125 22.5124 33.3187 21.7874L31.5562 18.5249C31.7 18.5062 31.85 18.4999 32 18.4999C34.2062 18.4999 36 20.2937 36 22.4999C36 24.7062 34.2062 26.4999 32 26.4999C29.7938 26.4999 28 24.7062 28 22.4999C28 21.5312 28.3438 20.6437 28.9188 19.9499ZM11.7063 23.9999C11.1125 25.4687 9.675 26.4999 8 26.4999C5.79375 26.4999 4 24.7062 4 22.4999C4 20.2937 5.79375 18.4999 8 18.4999C9.68125 18.4999 11.1188 19.5312 11.7063 20.9999H15.8562C15.1562 17.2999 11.9062 14.4999 8 14.4999C3.58125 14.4999 0 18.0812 0 22.4999C0 26.9187 3.58125 30.4999 8 30.4999C11.9062 30.4999 15.1562 27.6999 15.8625 23.9999H11.7125H11.7063ZM8 24.4999C8.53043 24.4999 9.03914 24.2892 9.41421 23.9141C9.78929 23.539 10 23.0303 10 22.4999C10 21.9695 9.78929 21.4608 9.41421 21.0857C9.03914 20.7106 8.53043 20.4999 8 20.4999C7.46957 20.4999 6.96086 20.7106 6.58579 21.0857C6.21071 21.4608 6 21.9695 6 22.4999C6 23.0303 6.21071 23.539 6.58579 23.9141C6.96086 24.2892 7.46957 24.4999 8 24.4999Z" fill="#333333"/>
</svg>
