<svg width="32" height="33" viewBox="0 0 32 33" fill="none" xmlns="http://www.w3.org/2000/svg">
<path d="M9.33331 19.1666C10.1244 19.1666 10.8978 19.4012 11.5556 19.8407C12.2134 20.2802 12.7261 20.9049 13.0288 21.6359C13.3316 22.3668 13.4108 23.171 13.2565 23.9469C13.1021 24.7229 12.7212 25.4356 12.1617 25.995C11.6023 26.5544 10.8896 26.9354 10.1137 27.0897C9.33775 27.2441 8.53348 27.1649 7.80258 26.8621C7.07167 26.5594 6.44696 26.0467 6.00743 25.3889C5.56791 24.7311 5.33331 23.9577 5.33331 23.1666L5.33998 22.9319C5.39984 21.9134 5.84664 20.9562 6.58897 20.2563C7.33129 19.5564 8.31303 19.1665 9.33331 19.1666ZM24 19.1666C24.7911 19.1666 25.5645 19.4012 26.2223 19.8407C26.8801 20.2802 27.3927 20.9049 27.6955 21.6359C27.9982 22.3668 28.0775 23.171 27.9231 23.9469C27.7688 24.7229 27.3878 25.4356 26.8284 25.995C26.269 26.5544 25.5563 26.9354 24.7803 27.0897C24.0044 27.2441 23.2002 27.1649 22.4692 26.8621C21.7383 26.5594 21.1136 26.0467 20.6741 25.3889C20.2346 24.7311 20 23.9577 20 23.1666L20.0066 22.9319C20.0665 21.9134 20.5133 20.9562 21.2556 20.2563C21.998 19.5564 22.9797 19.1665 24 19.1666ZM9.33331 21.8333C8.97969 21.8333 8.64055 21.9737 8.3905 22.2238C8.14046 22.4738 7.99998 22.813 7.99998 23.1666C7.99998 23.5202 8.14046 23.8593 8.3905 24.1094C8.64055 24.3594 8.97969 24.4999 9.33331 24.4999C9.68694 24.4999 10.0261 24.3594 10.2761 24.1094C10.5262 23.8593 10.6666 23.5202 10.6666 23.1666C10.6666 22.813 10.5262 22.4738 10.2761 22.2238C10.0261 21.9737 9.68694 21.8333 9.33331 21.8333ZM24 21.8333C23.6464 21.8333 23.3072 21.9737 23.0572 22.2238C22.8071 22.4738 22.6666 22.813 22.6666 23.1666C22.6666 23.5202 22.8071 23.8593 23.0572 24.1094C23.3072 24.3594 23.6464 24.4999 24 24.4999C24.3536 24.4999 24.6927 24.3594 24.9428 24.1094C25.1928 23.8593 25.3333 23.5202 25.3333 23.1666C25.3333 22.813 25.1928 22.4738 24.9428 22.2238C24.6927 21.9737 24.3536 21.8333 24 21.8333ZM19.2506 5.83325C20.1425 5.83335 21.0088 6.13153 21.7118 6.6804C22.4148 7.22927 22.9142 7.99735 23.1306 8.86259L23.708 11.1666H26.6666C27.6869 11.1665 28.6687 11.5564 29.411 12.2563C30.1533 12.9562 30.6001 13.9134 30.66 14.9319L30.6666 15.1666V19.1933L30.6533 19.3493C30.614 19.6398 30.4799 19.9092 30.272 20.1159L30.1293 20.2373L30.036 20.3026L29.9346 20.3586L29.7933 20.4199L29.7706 20.4266L29.708 20.4479L29.564 20.4813L29.4066 20.4986L29.3 20.5013L29.1373 20.4853L28.94 20.4413L28.856 20.4119C28.6736 20.3419 28.5088 20.2327 28.3733 20.0919L28.2666 19.9666C27.7699 19.3042 27.1257 18.7666 26.3851 18.3963C25.6446 18.026 24.828 17.8333 24 17.8333C23.172 17.8333 22.3554 18.026 21.6148 18.3963C20.8743 18.7666 20.2301 19.3042 19.7333 19.9666C19.6091 20.1322 19.4481 20.2666 19.2629 20.3592C19.0778 20.4517 18.8736 20.4999 18.6666 20.4999H14.6666C14.4597 20.4999 14.2555 20.4517 14.0704 20.3592C13.8852 20.2666 13.7242 20.1322 13.6 19.9666C13.1034 19.3034 12.459 18.765 11.718 18.3943C10.977 18.0236 10.1598 17.8308 9.33131 17.831C8.50278 17.8313 7.68571 18.0247 6.94496 18.3958C6.20421 18.767 5.56018 19.3057 5.06398 19.9693C4.9591 20.1095 4.82762 20.2277 4.67705 20.3172C4.52648 20.4066 4.35976 20.4655 4.18643 20.4905C4.01309 20.5155 3.83653 20.5062 3.66681 20.4629C3.4971 20.4197 3.33756 20.3435 3.19731 20.2386C3.05706 20.1337 2.93884 20.0022 2.8494 19.8517C2.75996 19.7011 2.70106 19.5344 2.67605 19.361C2.65104 19.1877 2.66041 19.0111 2.70364 18.8414C2.74687 18.6717 2.8231 18.5122 2.92798 18.3719C3.58531 17.4919 4.40798 16.7719 5.33331 16.2359V12.5133C5.33193 12.3542 5.35902 12.1961 5.41331 12.0466L5.46931 11.9133L8.14131 6.57059C8.25197 6.34914 8.42208 6.16288 8.63261 6.03266C8.84314 5.90243 9.08576 5.83338 9.33331 5.83325H19.2506ZM2.66665 8.49992C3.02027 8.49992 3.35941 8.64039 3.60946 8.89044C3.8595 9.14049 3.99998 9.47963 3.99998 9.83325V15.1666C3.99998 15.5202 3.8595 15.8593 3.60946 16.1094C3.35941 16.3594 3.02027 16.4999 2.66665 16.4999C2.31302 16.4999 1.97389 16.3594 1.72384 16.1094C1.47379 15.8593 1.33331 15.5202 1.33331 15.1666V9.83325C1.33331 9.47963 1.47379 9.14049 1.72384 8.89044C1.97389 8.64039 2.31302 8.49992 2.66665 8.49992ZM19.2506 8.49992H14.6666V11.1666H20.9573L20.544 9.50925C20.4718 9.22092 20.3053 8.965 20.0709 8.78213C19.8366 8.59925 19.5479 8.49993 19.2506 8.49992ZM12 8.49992H10.1573L8.82265 11.1666H12V8.49992Z" fill="#333333"/>
</svg>
