<svg width="49" height="50" viewBox="0 0 49 50" fill="none" xmlns="http://www.w3.org/2000/svg">
<circle cx="24.5005" cy="25.0611" r="20" transform="rotate(-15 24.5005 25.0611)" fill="black"/>
<g clip-path="url(#clip0_2001_2314)">
<path d="M21.2575 18.269C20.8159 18.3874 20.5558 18.8378 20.6741 19.2794C20.7925 19.721 21.2429 19.9811 21.6845 19.8628L23.6004 19.3494L24.4145 20.2096L21.8841 23.7951L19.9769 22.694C19.4717 22.4024 18.8709 22.3249 18.3064 22.4762L14.9396 23.3783C14.3519 23.5358 14.0043 24.1378 14.1618 24.7255L14.4465 25.788L17.634 24.9339C20.5692 24.1475 23.5836 25.8878 24.3701 28.823C24.468 29.1883 24.5267 29.5533 24.5486 29.914L26.8861 29.2877C26.7248 28.9644 26.593 28.6189 26.4952 28.2536C26.0307 26.5204 26.448 24.7573 27.4732 23.4435L28.239 24.2561C27.4951 25.2917 27.2018 26.6408 27.5577 27.9689C28.1867 30.3164 30.5991 31.7092 32.9466 31.0802C35.2941 30.4512 36.6868 28.0388 36.0578 25.6913C35.4288 23.3438 33.0165 21.951 30.669 22.5801C30.2207 22.7002 29.8077 22.8855 29.4374 23.1236L26.7003 20.227L28.7523 19.6772C29.34 19.5197 29.6876 18.9177 29.5302 18.33L29.2454 17.2675C29.088 16.6798 28.4859 16.3322 27.8982 16.4896L27.2209 16.6711C26.9718 16.7379 26.7559 16.8883 26.606 17.0992L25.3836 18.8325L24.6874 18.0938C24.3402 17.7277 23.8199 17.5789 23.3318 17.7096L21.2575 18.269ZM29.8078 25.914L31.2086 27.3964C31.5219 27.7288 32.0449 27.7417 32.374 27.4293C32.7031 27.1169 32.7193 26.593 32.4069 26.2639L31.0062 24.7815C31.0799 24.7511 31.1587 24.7264 31.2384 24.7051C32.4104 24.391 33.6187 25.0886 33.9328 26.2607C34.2469 27.4328 33.5493 28.6411 32.3772 28.9552C31.2051 29.2692 29.9968 28.5716 29.6827 27.3995C29.5448 26.8849 29.6011 26.3644 29.8078 25.914ZM21.24 30.5158C21.1337 31.3806 20.5168 32.1331 19.6269 32.3716C18.4548 32.6856 17.2466 31.988 16.9325 30.8159C16.6184 29.6438 17.316 28.4356 18.4881 28.1215C19.3813 27.8822 20.2918 28.2254 20.813 28.9221L23.0177 28.3313C22.1191 26.4653 19.994 25.4404 17.9187 25.9965C15.5712 26.6255 14.1785 29.0378 14.8075 31.3853C15.4365 33.7328 17.8488 35.1256 20.1963 34.4966C22.2716 33.9406 23.5996 31.9904 23.4481 29.9242L21.2434 30.5149L21.24 30.5158ZM19.3422 31.3091C19.624 31.2335 19.8643 31.0492 20.0102 30.7965C20.156 30.5439 20.1956 30.2436 20.1201 29.9618C20.0445 29.68 19.8602 29.4398 19.6075 29.2939C19.3549 29.148 19.0546 29.1085 18.7728 29.184C18.491 29.2595 18.2508 29.4439 18.1049 29.6965C17.959 29.9492 17.9195 30.2494 17.995 30.5312C18.0705 30.813 18.2549 31.0533 18.5075 31.1992C18.7602 31.345 19.0604 31.3846 19.3422 31.3091Z" fill="white"/>
</g>
<defs>
<clipPath id="clip0_2001_2314">
<rect width="22" height="17.6" fill="white" transform="translate(11.6754 19.6978) rotate(-15)"/>
</clipPath>
</defs>
</svg>
