<svg width="32" height="32" viewBox="0 0 32 32" fill="none" xmlns="http://www.w3.org/2000/svg">
<path d="M24 24.6666C23.4696 24.6666 22.9609 24.4559 22.5858 24.0808C22.2107 23.7057 22 23.197 22 22.6666C22 22.1362 22.2107 21.6274 22.5858 21.2524C22.9609 20.8773 23.4696 20.6666 24 20.6666C24.5304 20.6666 25.0391 20.8773 25.4142 21.2524C25.7893 21.6274 26 22.1362 26 22.6666C26 23.197 25.7893 23.7057 25.4142 24.0808C25.0391 24.4559 24.5304 24.6666 24 24.6666ZM26 12.6666L28.6133 15.9999H22.6667V12.6666M8 24.6666C7.46956 24.6666 6.96085 24.4559 6.58578 24.0808C6.21071 23.7057 6 23.197 6 22.6666C6 22.1362 6.21071 21.6274 6.58578 21.2524C6.96085 20.8773 7.46956 20.6666 8 20.6666C8.53043 20.6666 9.03914 20.8773 9.41421 21.2524C9.78928 21.6274 10 22.1362 10 22.6666C10 23.197 9.78928 23.7057 9.41421 24.0808C9.03914 24.4559 8.53043 24.6666 8 24.6666ZM26.6667 10.6666H22.6667V5.33325H3.99999C2.51999 5.33325 1.33333 6.51992 1.33333 7.99992V22.6666H3.99999C3.99999 23.7275 4.42142 24.7449 5.17157 25.495C5.92171 26.2452 6.93913 26.6666 8 26.6666C9.06086 26.6666 10.0783 26.2452 10.8284 25.495C11.5786 24.7449 12 23.7275 12 22.6666H20C20 23.7275 20.4214 24.7449 21.1716 25.495C21.9217 26.2452 22.9391 26.6666 24 26.6666C25.0609 26.6666 26.0783 26.2452 26.8284 25.495C27.5786 24.7449 28 23.7275 28 22.6666H30.6667V15.9999L26.6667 10.6666Z" fill="#333333"/>
</svg>
