<svg width="207" height="132" viewBox="0 0 207 132" fill="none" xmlns="http://www.w3.org/2000/svg">
<path d="M106.815 70.662C110.19 67.0712 112.986 62.978 115.104 58.5288C117.145 54.0719 118.556 49.3527 119.296 44.5071C120.1 39.7848 120.331 34.9829 119.986 30.2053C119.663 25.4287 118.502 20.7461 116.556 16.3717C115.566 14.1704 114.262 12.1239 112.686 10.2958C111.073 8.37503 109.057 6.83294 106.781 5.77902C104.227 4.63081 101.363 4.3701 98.6439 5.03837C95.8801 5.79415 93.387 7.31782 91.4539 9.43276C90.5299 10.3992 89.6865 11.4396 88.9322 12.5436C88.2445 13.6216 87.6138 14.7349 87.0424 15.8788C86.4902 16.9778 86.0102 18.1116 85.6052 19.273L84.9222 21.05L84.4144 22.7661C83.2003 27.1577 82.416 31.6569 82.0726 36.2002C81.6746 40.6476 81.9085 45.1289 82.7673 49.5106C83.5856 53.6658 85.0023 57.6803 86.9734 61.4287L87.6663 62.7907L88.4781 64.0761C89.0038 64.9226 89.55 65.8052 90.0811 66.6107C91.1929 68.2212 92.3874 69.773 93.6598 71.2598C94.4016 72.1177 95.19 72.9399 95.9783 73.762C95.121 74.37 94.2952 74.865 93.3607 75.4881C89.829 77.6448 86.0234 79.3167 82.0459 80.4587C78.2244 81.5033 74.2658 81.9589 70.3069 81.8097C62.754 81.293 55.4164 79.0711 48.8457 75.311C42.6912 71.7831 37.0584 67.4147 32.1099 62.3317C27.5624 57.6923 23.3972 52.6929 19.655 47.3825C16.3245 42.7625 13.3061 37.9253 10.6197 32.9033C6.64311 25.5611 3.89486 17.6175 2.48395 9.38757C1.58235 3.45513 1.78509 -0.0326766 1.44494 0.0736783C1.18286 0.873118 1.0569 1.71089 1.07231 2.55205C0.928158 4.91871 0.966136 7.29294 1.18589 9.65377C2.12372 18.1474 4.56517 26.4064 8.39616 34.0448C10.9549 39.2823 13.8731 44.3364 17.1298 49.1709C20.8105 54.734 24.9403 59.9866 29.4779 64.8759C34.5218 70.3264 40.3123 75.0349 46.6769 78.861C53.694 83.0948 61.5926 85.6542 69.7593 86.3404C74.1934 86.5984 78.6408 86.1694 82.9439 85.0687C87.424 83.8692 91.7171 82.057 95.7016 79.6834C97.0855 78.8849 98.4231 78.0085 99.7078 77.0586C102.995 79.9409 106.535 82.5213 110.285 84.7685C120.313 90.6628 131.156 95.0451 142.463 97.7738C150.643 99.8084 158.973 101.18 167.373 101.877C176.675 102.719 186.04 102.558 195.307 101.394L198.181 100.915L196.042 102.695C193.793 104.67 191.73 106.702 189.785 108.658C186.393 112.166 183.275 115.928 180.456 119.911C175.636 126.731 173.636 131.491 174.211 131.833C174.786 132.176 177.929 128.209 183.223 122.246C185.919 119.275 189.142 115.787 192.973 112.194C194.891 110.377 196.938 108.534 199.109 106.708C200.215 105.798 201.331 104.872 202.478 103.967C203.056 103.507 203.598 103.134 204.405 102.402C205.484 101.472 206.229 100.214 206.527 98.821C206.669 98.0714 206.656 97.3007 206.487 96.5566C206.346 95.9756 206.129 95.4157 205.842 94.8913C205.398 94.1283 204.874 93.4149 204.278 92.7634C203.363 91.6988 202.426 90.6649 201.531 89.6364C199.704 87.5998 197.923 85.6612 196.213 83.8156C192.753 80.1859 189.558 77.0927 186.72 74.4645C181.188 69.3938 177.317 66.606 176.795 67.1488C176.272 67.6917 179.135 71.4778 183.968 77.2859L192.537 87.3786C194.153 89.2735 195.836 91.2579 197.586 93.3319C198.456 94.3654 199.356 95.4196 200.256 96.4739C200.282 96.5011 200.314 96.5223 200.348 96.5361C199.206 96.5046 197.591 96.512 195.285 96.6136C186.307 96.9232 177.318 96.6426 168.377 95.7736C160.307 94.9043 152.311 93.4557 144.45 91.4391C133.724 88.7633 123.436 84.5649 113.9 78.972C110.772 77.0804 107.796 74.9475 105 72.5929C105.641 71.9734 106.282 71.354 106.892 70.7139L106.815 70.662ZM98.7164 66.4791C97.5701 65.1779 96.4931 63.8172 95.4898 62.4028C95.0045 61.6954 94.5504 60.9419 94.0704 60.1933L93.371 59.0732L92.7647 57.8815C91.0342 54.6793 89.7956 51.235 89.0905 47.6642C88.3234 43.8875 88.0967 40.021 88.4174 36.1806C88.6799 32.0972 89.3466 28.0499 90.4077 24.0981L90.8268 22.613L91.3382 21.1902C91.6695 20.2491 92.0521 19.3269 92.4842 18.4276C92.8798 17.5085 93.3826 16.7957 93.8967 15.8669C94.4086 15.1026 94.9836 14.3826 95.6158 13.7143C96.5929 12.4627 97.9564 11.5692 99.494 11.173C101.032 10.7768 102.657 10.9002 104.117 11.5238C107.355 13.2458 109.893 16.04 111.297 19.4277C112.994 23.1516 114.029 27.1426 114.356 31.2217C114.71 35.5164 114.547 39.8381 113.87 44.0939C113.285 48.378 112.102 52.5587 110.355 56.5135C108.528 60.4192 106.104 64.0163 103.169 67.1755C102.543 67.8722 101.886 68.5481 101.224 69.1983C100.343 68.314 99.4886 67.4246 98.6033 66.4476" fill="#FFDB60"/>
</svg>
