<svg width="34" height="34" viewBox="0 0 34 34" fill="none" xmlns="http://www.w3.org/2000/svg">
<path fill-rule="evenodd" clip-rule="evenodd" d="M6.31464 10.55C6.38101 11.7628 5.7779 13.4265 4.94915 14.3135C4.18022 15.1389 3.77041 16.2358 3.80978 17.3632C3.84915 18.4905 4.33447 19.5561 5.15911 20.3259C6.03608 21.1406 6.71085 22.5835 6.7766 23.7787C6.83595 24.8365 7.28684 25.8742 8.12249 26.6519C8.89357 27.3724 9.90563 27.7795 10.9609 27.7935C12.2279 27.8133 13.9102 28.491 14.8369 29.3552C15.6622 30.1237 16.7587 30.5332 17.8857 30.4938C19.0127 30.4545 20.078 29.9695 20.8477 29.1453C21.7118 28.2186 23.3428 27.4252 24.6053 27.3171C25.657 27.2294 26.6382 26.7528 27.3572 25.9802C28.1068 25.1775 28.5156 24.1152 28.4976 23.017C28.48 21.8233 29.0448 20.3467 29.8612 19.4729C30.6332 18.6476 31.0457 17.5496 31.0081 16.4202C30.9704 15.2908 30.4857 14.2226 29.6605 13.4506C28.7735 12.625 28.0542 11.006 28.0375 9.79301C28.0295 9.22032 27.9056 8.65518 27.6733 8.13169C27.4409 7.60819 27.1049 7.1372 26.6855 6.74713C26.2508 6.34068 25.7354 6.0303 25.1728 5.83617C24.6102 5.64205 24.0131 5.56853 23.4202 5.62041C22.2805 5.71784 20.8205 5.21489 19.9847 4.43398C19.1593 3.66505 18.0625 3.25524 16.9351 3.29461C15.8077 3.33398 14.7421 3.8193 13.9724 4.64394C13.1947 5.47959 11.7717 6.08481 10.628 6.06712C10.0332 6.05695 9.44299 6.17204 8.89562 6.40492C8.34824 6.6378 7.85599 6.98325 7.45086 7.41882C7.0599 7.837 6.75767 8.33002 6.56239 8.86816C6.36712 9.40629 6.28284 9.9784 6.31464 10.55ZM22.076 11.322C22.2632 11.4175 22.4298 11.5489 22.5662 11.7088C22.7026 11.8687 22.8062 12.0539 22.871 12.2539C22.9358 12.4538 22.9606 12.6645 22.944 12.8741C22.9273 13.0836 22.8695 13.2878 22.7739 13.4749L18.626 21.5959C18.519 21.8168 18.3625 22.0102 18.1687 22.161C17.8871 22.3801 17.5403 22.4988 17.1835 22.4982C16.8266 22.4976 16.4803 22.3777 16.1994 22.1577L11.6644 18.7827C11.4958 18.6572 11.3536 18.4997 11.2459 18.3192C11.1382 18.1387 11.0671 17.9388 11.0366 17.7309C11.0062 17.5229 11.017 17.311 11.0684 17.1072C11.1199 16.9034 11.2109 16.7118 11.3365 16.5432C11.462 16.3746 11.6195 16.2324 11.7999 16.1247C11.9804 16.0169 12.1803 15.9458 12.3883 15.9154C12.5963 15.8849 12.8082 15.8957 13.012 15.9472C13.2157 15.9986 13.4074 16.0897 13.576 16.2152L16.6218 18.4831L19.923 12.0184C20.0186 11.8313 20.1502 11.6648 20.3101 11.5286C20.4701 11.3923 20.6553 11.2889 20.8553 11.2242C21.0552 11.1596 21.2659 11.1349 21.4753 11.1517C21.6848 11.1685 21.8889 11.2263 22.076 11.322Z" fill="#0065FF"/>
</svg>
