<svg width="37" height="32" viewBox="0 0 37 32" fill="none" xmlns="http://www.w3.org/2000/svg">
<path d="M36.8385 11.932C36.8385 7.70555 33.0201 5.14548 28.327 6.22101L6.66113 11.2048V31.6854L11.3879 30.6099V14.386L28.3606 10.4929C30.4464 10.0081 32.1454 11.1594 32.1454 13.0378C32.1454 14.9162 30.4464 16.84 28.3606 17.3096L17.1072 19.8849V24.1415L21.8844 23.0509L27.6036 26.8986L34.2817 25.3686L28.5456 21.5209C33.1547 20.3696 36.8722 16.1281 36.8722 11.9622L36.8385 11.932Z" fill="#0065FF"/>
<path d="M0 7.06953V27.9743L4.28943 26.9897V25.2476L1.93445 25.7929V8.35714L26.7963 2.66135V4.46401L28.7308 4.0247V0.47998L0 7.06953Z" fill="#0065FF"/>
</svg>
