<svg width="473" height="290" viewBox="0 0 473 290" fill="none" xmlns="http://www.w3.org/2000/svg">
<g opacity="0.25">
<path d="M3.21421 148.639C3.96567 148.292 4.29316 147.401 3.94575 146.649C3.59833 145.898 2.70757 145.57 1.95611 145.918C1.20465 146.265 0.877093 147.156 1.22451 147.907C1.57192 148.659 2.46275 148.986 3.21421 148.639Z" fill="white"/>
<path d="M18.8395 141.415C19.5909 141.068 19.9185 140.177 19.5711 139.426C19.2236 138.674 18.3328 138.347 17.5814 138.694C16.8299 139.042 16.5023 139.932 16.8498 140.684C17.1972 141.435 18.088 141.763 18.8395 141.415Z" fill="white"/>
<path d="M35.196 132.202C35.542 132.95 35.2128 133.846 34.4645 134.192C33.7161 134.538 32.8207 134.209 32.4748 133.46C32.1288 132.712 32.458 131.816 33.2064 131.47C33.9547 131.125 34.85 131.454 35.196 132.202Z" fill="white"/>
<path d="M50.0885 126.968C50.8399 126.621 51.1675 125.73 50.8201 124.978C50.4727 124.227 49.5818 123.9 48.8304 124.247C48.0789 124.594 47.7514 125.485 48.0988 126.237C48.4462 126.988 49.337 127.316 50.0885 126.968Z" fill="white"/>
<path d="M65.7135 119.744C66.4649 119.397 66.7925 118.506 66.4451 117.755C66.0977 117.003 65.2068 116.676 64.4554 117.023C63.7039 117.371 63.3764 118.261 63.7238 119.013C64.0712 119.764 64.962 120.092 65.7135 119.744Z" fill="white"/>
<path d="M81.3375 112.521C82.089 112.174 82.4165 111.283 82.0691 110.532C81.7217 109.78 80.8309 109.453 80.0794 109.8C79.3279 110.148 79.0004 111.038 79.3478 111.79C79.6952 112.541 80.586 112.869 81.3375 112.521Z" fill="white"/>
<path d="M96.9742 105.292C97.7257 104.945 98.0532 104.054 97.7058 103.303C97.3583 102.551 96.4676 102.224 95.7161 102.571C94.9647 102.919 94.6371 103.809 94.9845 104.561C95.3319 105.312 96.2228 105.64 96.9742 105.292Z" fill="white"/>
<path d="M112.599 98.0686C113.351 97.7212 113.678 96.8304 113.331 96.0789C112.983 95.3275 112.093 94.9999 111.341 95.3474C110.59 95.6948 110.262 96.5856 110.609 97.337C110.957 98.0885 111.848 98.416 112.599 98.0686Z" fill="white"/>
<path d="M128.223 90.8451C128.975 90.4977 129.302 89.6069 128.955 88.8555C128.607 88.104 127.717 87.7765 126.965 88.1239C126.214 88.4713 125.886 89.3621 126.234 90.1136C126.581 90.865 127.472 91.1926 128.223 90.8451Z" fill="white"/>
<path d="M144.58 81.6316C144.926 82.38 144.597 83.2754 143.848 83.6213C143.1 83.9673 142.204 83.6381 141.858 82.8898C141.513 82.1414 141.842 81.246 142.59 80.9001C143.338 80.5541 144.234 80.8833 144.58 81.6316Z" fill="white"/>
<path d="M159.472 76.3979C160.224 76.0505 160.551 75.1597 160.204 74.4082C159.856 73.6568 158.966 73.3292 158.214 73.6766C157.463 74.024 157.135 74.9148 157.483 75.6663C157.83 76.4178 158.721 76.7453 159.472 76.3979Z" fill="white"/>
<path d="M175.097 69.174C175.849 68.8266 176.176 67.9358 175.829 67.1843C175.481 66.4328 174.591 66.1053 173.839 66.4527C173.088 66.8001 172.76 67.691 173.108 68.4424C173.455 69.1939 174.346 69.5214 175.097 69.174Z" fill="white"/>
<path d="M190.734 61.9455C191.485 61.5981 191.813 60.7073 191.465 59.9558C191.118 59.2044 190.227 58.8768 189.476 59.2242C188.724 59.5716 188.397 60.4624 188.744 61.2139C189.092 61.9654 189.982 62.2929 190.734 61.9455Z" fill="white"/>
<path d="M206.358 54.7216C207.109 54.3742 207.437 53.4834 207.09 52.7319C206.742 51.9805 205.851 51.6529 205.1 52.0003C204.348 52.3478 204.021 53.2386 204.368 53.99C204.716 54.7415 205.607 55.069 206.358 54.7216Z" fill="white"/>
<path d="M221.983 47.4982C222.734 47.1507 223.062 46.26 222.714 45.5085C222.367 44.757 221.476 44.4295 220.725 44.7769C219.973 45.1243 219.646 46.0151 219.993 46.7666C220.341 47.518 221.231 47.8456 221.983 47.4982Z" fill="white"/>
<path d="M237.607 40.2743C238.358 39.9269 238.686 39.0361 238.339 38.2847C237.991 37.5332 237.1 37.2057 236.349 37.5531C235.597 37.9005 235.27 38.7913 235.617 39.5428C235.965 40.2942 236.856 40.6218 237.607 40.2743Z" fill="white"/>
<path d="M253.232 33.0509C253.983 32.7035 254.311 31.8127 253.964 31.0612C253.616 30.3098 252.725 29.9822 251.974 30.3296C251.222 30.677 250.895 31.5679 251.242 32.3193C251.59 33.0708 252.481 33.3983 253.232 33.0509Z" fill="white"/>
<path d="M268.858 25.8271C269.609 25.4797 269.937 24.5888 269.59 23.8374C269.242 23.0859 268.351 22.7584 267.6 23.1058C266.848 23.4532 266.521 24.344 266.868 25.0955C267.216 25.847 268.107 26.1745 268.858 25.8271Z" fill="white"/>
<path d="M285.214 16.6139C285.56 17.3623 285.231 18.2576 284.482 18.6036C283.734 18.9495 282.838 18.6203 282.493 17.872C282.147 17.1236 282.476 16.2283 283.224 15.8823C283.984 15.5311 284.868 15.8656 285.214 16.6139Z" fill="white"/>
<path d="M300.118 11.3751C300.869 11.0276 301.197 10.1368 300.849 9.38536C300.502 8.6339 299.611 8.30636 298.86 8.65378C298.108 9.00119 297.781 9.89201 298.128 10.6435C298.475 11.3949 299.366 11.7225 300.118 11.3751Z" fill="white"/>
<path d="M315.742 4.1513C316.493 3.80388 316.821 2.9131 316.473 2.16164C316.126 1.41018 315.235 1.08261 314.484 1.43002C313.732 1.77744 313.405 2.66826 313.752 3.41972C314.1 4.17118 314.99 4.49871 315.742 4.1513Z" fill="white"/>
<path d="M10.2811 163.924C11.0326 163.576 11.3601 162.686 11.0126 161.934C10.6652 161.183 9.77447 160.855 9.02301 161.203C8.27155 161.55 7.94399 162.441 8.29141 163.192C8.63882 163.944 9.52965 164.271 10.2811 163.924Z" fill="white"/>
<path d="M25.9059 156.7C26.6573 156.353 26.9849 155.462 26.6375 154.71C26.2901 153.959 25.3992 153.631 24.6478 153.979C23.8963 154.326 23.5687 155.217 23.9162 155.969C24.2636 156.72 25.1544 157.048 25.9059 156.7Z" fill="white"/>
<path d="M42.2617 147.487C42.6076 148.235 42.2785 149.131 41.5301 149.477C40.7818 149.823 39.8864 149.493 39.5404 148.745C39.1945 147.997 39.5237 147.101 40.272 146.755C41.0256 146.421 41.9157 146.739 42.2617 147.487Z" fill="white"/>
<path d="M57.1549 142.253C57.9064 141.905 58.2339 141.015 57.8865 140.263C57.5391 139.512 56.6482 139.184 55.8968 139.532C55.1453 139.879 54.8178 140.77 55.1652 141.521C55.5126 142.273 56.4034 142.6 57.1549 142.253Z" fill="white"/>
<path d="M72.7799 135.029C73.5314 134.682 73.8589 133.791 73.5115 133.04C73.1641 132.288 72.2732 131.961 71.5218 132.308C70.7703 132.655 70.4428 133.546 70.7902 134.298C71.1376 135.049 72.0284 135.377 72.7799 135.029Z" fill="white"/>
<path d="M88.4049 127.806C89.1564 127.458 89.4839 126.567 89.1365 125.816C88.7891 125.064 87.8982 124.737 87.1468 125.084C86.3953 125.432 86.0678 126.323 86.4152 127.074C86.7626 127.825 87.6534 128.153 88.4049 127.806Z" fill="white"/>
<path d="M104.04 120.577C104.792 120.23 105.119 119.339 104.772 118.587C104.424 117.836 103.534 117.508 102.782 117.856C102.031 118.203 101.703 119.094 102.051 119.845C102.398 120.597 103.289 120.924 104.04 120.577Z" fill="white"/>
<path d="M119.665 113.353C120.416 113.006 120.744 112.115 120.396 111.364C120.049 110.612 119.158 110.285 118.407 110.632C117.655 110.98 117.328 111.87 117.675 112.622C118.023 113.373 118.913 113.701 119.665 113.353Z" fill="white"/>
<path d="M135.291 106.13C136.042 105.782 136.37 104.892 136.022 104.14C135.675 103.389 134.784 103.061 134.032 103.408C133.281 103.756 132.953 104.647 133.301 105.398C133.648 106.15 134.539 106.477 135.291 106.13Z" fill="white"/>
<path d="M151.646 96.9165C151.992 97.6648 151.663 98.5602 150.915 98.9062C150.166 99.2522 149.271 98.923 148.925 98.1746C148.579 97.4263 148.908 96.5309 149.657 96.1849C150.41 95.8503 151.3 96.1681 151.646 96.9165Z" fill="white"/>
<path d="M166.54 91.6824C167.291 91.335 167.619 90.4442 167.271 89.6928C166.924 88.9413 166.033 88.6137 165.281 88.9612C164.53 89.3086 164.202 90.1994 164.55 90.9509C164.897 91.7023 165.788 92.0299 166.54 91.6824Z" fill="white"/>
<path d="M182.164 84.4589C182.915 84.1115 183.243 83.2207 182.895 82.4692C182.548 81.7178 181.657 81.3902 180.906 81.7376C180.154 82.0851 179.827 82.9759 180.174 83.7273C180.521 84.4788 181.412 84.8063 182.164 84.4589Z" fill="white"/>
<path d="M197.799 77.2294C198.551 76.882 198.878 75.9912 198.531 75.2398C198.184 74.4883 197.293 74.1607 196.541 74.5081C195.79 74.8556 195.462 75.7464 195.81 76.4979C196.157 77.2493 197.048 77.5768 197.799 77.2294Z" fill="white"/>
<path d="M213.425 70.0066C214.177 69.6592 214.504 68.7684 214.157 68.0169C213.81 67.2654 212.919 66.9379 212.167 67.2853C211.416 67.6327 211.088 68.5236 211.436 69.275C211.783 70.0265 212.674 70.354 213.425 70.0066Z" fill="white"/>
<path d="M229.049 62.7831C229.801 62.4357 230.128 61.5449 229.781 60.7935C229.434 60.042 228.543 59.7144 227.791 60.0619C227.04 60.4093 226.712 61.3001 227.06 62.0516C227.407 62.803 228.298 63.1306 229.049 62.7831Z" fill="white"/>
<path d="M244.674 55.5593C245.426 55.2119 245.753 54.3211 245.406 53.5696C245.059 52.8182 244.168 52.4906 243.416 52.838C242.665 53.1855 242.337 54.0763 242.685 54.8277C243.032 55.5792 243.923 55.9067 244.674 55.5593Z" fill="white"/>
<path d="M260.298 48.3359C261.05 47.9885 261.377 47.0977 261.03 46.3462C260.683 45.5948 259.792 45.2672 259.04 45.6146C258.289 45.962 257.961 46.8528 258.309 47.6043C258.656 48.3558 259.547 48.6833 260.298 48.3359Z" fill="white"/>
<path d="M275.923 41.112C276.675 40.7646 277.002 39.8738 276.655 39.1223C276.308 38.3708 275.417 38.0433 274.665 38.3907C273.914 38.7381 273.586 39.629 273.934 40.3804C274.281 41.1319 275.172 41.4594 275.923 41.112Z" fill="white"/>
<path d="M292.279 31.8985C292.625 32.6468 292.296 33.5421 291.547 33.8881C290.799 34.2341 289.904 33.9049 289.558 33.1565C289.212 32.4082 289.541 31.5128 290.289 31.1668C291.054 30.827 291.933 31.1501 292.279 31.8985Z" fill="white"/>
<path d="M307.184 26.6591C307.936 26.3117 308.263 25.4209 307.916 24.6694C307.568 23.918 306.678 23.5904 305.926 23.9378C305.175 24.2853 304.847 25.1761 305.194 25.9275C305.542 26.679 306.433 27.0065 307.184 26.6591Z" fill="white"/>
<path d="M322.809 19.4362C323.561 19.0887 323.888 18.198 323.541 17.4465C323.193 16.695 322.302 16.3675 321.551 16.7149C320.8 17.0623 320.472 17.9531 320.819 18.7046C321.167 19.456 322.058 19.7836 322.809 19.4362Z" fill="white"/>
<path d="M17.3529 179.22C18.1043 178.872 18.4318 177.981 18.0844 177.23C17.737 176.478 16.8462 176.151 16.0948 176.498C15.3433 176.846 15.0158 177.737 15.3632 178.488C15.7106 179.239 16.6014 179.567 17.3529 179.22Z" fill="white"/>
<path d="M32.9772 171.996C33.7286 171.649 34.0562 170.758 33.7088 170.006C33.3613 169.255 32.4705 168.927 31.7191 169.275C30.9676 169.622 30.64 170.513 30.9875 171.264C31.3349 172.016 32.2257 172.343 32.9772 171.996Z" fill="white"/>
<path d="M49.3334 162.783C49.6794 163.531 49.3503 164.426 48.6019 164.772C47.8536 165.118 46.9582 164.789 46.6122 164.041C46.2662 163.292 46.5955 162.397 47.3438 162.051C48.0922 161.705 48.9822 162.023 49.3334 162.783Z" fill="white"/>
<path d="M64.2262 157.549C64.9776 157.201 65.3052 156.311 64.9578 155.559C64.6104 154.808 63.7195 154.48 62.9681 154.827C62.2166 155.175 61.8891 156.066 62.2365 156.817C62.5839 157.569 63.4747 157.896 64.2262 157.549Z" fill="white"/>
<path d="M79.8512 150.325C80.6026 149.978 80.9302 149.087 80.5828 148.335C80.2354 147.584 79.3445 147.256 78.5931 147.604C77.8416 147.951 77.5141 148.842 77.8615 149.594C78.2089 150.345 79.0997 150.673 79.8512 150.325Z" fill="white"/>
<path d="M95.4762 143.102C96.2276 142.754 96.5552 141.863 96.2078 141.112C95.8604 140.36 94.9695 140.033 94.2181 140.38C93.4666 140.728 93.1391 141.618 93.4865 142.37C93.8339 143.121 94.7247 143.449 95.4762 143.102Z" fill="white"/>
<path d="M111.112 135.873C111.863 135.526 112.191 134.635 111.843 133.883C111.496 133.132 110.605 132.804 109.854 133.152C109.102 133.499 108.775 134.39 109.122 135.141C109.47 135.893 110.36 136.22 111.112 135.873Z" fill="white"/>
<path d="M126.737 128.649C127.488 128.302 127.816 127.411 127.469 126.66C127.121 125.908 126.23 125.581 125.479 125.928C124.727 126.275 124.4 127.166 124.747 127.918C125.095 128.669 125.985 128.997 126.737 128.649Z" fill="white"/>
<path d="M142.361 121.426C143.112 121.078 143.44 120.188 143.092 119.436C142.745 118.685 141.854 118.357 141.103 118.704C140.351 119.052 140.024 119.943 140.371 120.694C140.719 121.446 141.609 121.773 142.361 121.426Z" fill="white"/>
<path d="M158.718 112.212C159.064 112.96 158.734 113.856 157.986 114.202C157.238 114.548 156.342 114.218 155.996 113.47C155.65 112.722 155.979 111.826 156.728 111.48C157.476 111.134 158.366 111.452 158.718 112.212Z" fill="white"/>
<path d="M173.611 106.978C174.362 106.631 174.69 105.74 174.342 104.988C173.995 104.237 173.104 103.909 172.353 104.257C171.601 104.604 171.274 105.495 171.621 106.246C171.969 106.998 172.859 107.325 173.611 106.978Z" fill="white"/>
<path d="M189.236 99.7545C189.987 99.4071 190.315 98.5163 189.967 97.7648C189.62 97.0134 188.729 96.6858 187.978 97.0332C187.226 97.3807 186.899 98.2715 187.246 99.0229C187.594 99.7744 188.484 100.102 189.236 99.7545Z" fill="white"/>
<path d="M204.872 92.5258C205.623 92.1784 205.951 91.2876 205.603 90.5362C205.256 89.7847 204.365 89.4571 203.614 89.8045C202.862 90.152 202.535 91.0428 202.882 91.7942C203.229 92.5457 204.12 92.8732 204.872 92.5258Z" fill="white"/>
<path d="M220.496 85.3024C221.247 84.955 221.575 84.0641 221.227 83.3127C220.88 82.5612 219.989 82.2337 219.238 82.5811C218.486 82.9285 218.159 83.8193 218.506 84.5708C218.854 85.3223 219.744 85.6498 220.496 85.3024Z" fill="white"/>
<path d="M236.122 78.0787C236.873 77.7313 237.201 76.8405 236.853 76.089C236.506 75.3376 235.615 75.01 234.863 75.3574C234.112 75.7048 233.784 76.5956 234.132 77.3471C234.479 78.0986 235.37 78.4261 236.122 78.0787Z" fill="white"/>
<path d="M251.746 70.8549C252.497 70.5075 252.825 69.6167 252.477 68.8652C252.13 68.1138 251.239 67.7862 250.488 68.1336C249.736 68.4811 249.409 69.3719 249.756 70.1233C250.103 70.8748 250.994 71.2023 251.746 70.8549Z" fill="white"/>
<path d="M267.371 63.6314C268.122 63.284 268.45 62.3932 268.102 61.6417C267.755 60.8903 266.864 60.5627 266.113 60.9101C265.361 61.2575 265.034 62.1484 265.381 62.8998C265.728 63.6513 266.619 63.9788 267.371 63.6314Z" fill="white"/>
<path d="M282.995 56.4077C283.746 56.0602 284.074 55.1694 283.726 54.418C283.379 53.6665 282.488 53.339 281.737 53.6864C280.985 54.0338 280.658 54.9246 281.005 55.6761C281.352 56.4275 282.243 56.7551 282.995 56.4077Z" fill="white"/>
<path d="M299.351 47.1944C299.697 47.9428 299.368 48.8381 298.62 49.1841C297.871 49.5301 296.976 49.2009 296.63 48.4525C296.284 47.7042 296.613 46.8088 297.362 46.4628C298.121 46.1116 299 46.4347 299.351 47.1944Z" fill="white"/>
<path d="M314.256 41.9556C315.008 41.6082 315.335 40.7173 314.988 39.9659C314.641 39.2144 313.75 38.8869 312.998 39.2343C312.247 39.5817 311.919 40.4725 312.267 41.224C312.614 41.9754 313.505 42.303 314.256 41.9556Z" fill="white"/>
<path d="M329.88 34.7319C330.632 34.3845 330.959 33.4937 330.612 32.7422C330.265 31.9908 329.374 31.6632 328.622 32.0106C327.871 32.358 327.543 33.2488 327.891 34.0003C328.238 34.7518 329.129 35.0793 329.88 34.7319Z" fill="white"/>
<path d="M24.4186 194.504C25.17 194.157 25.4975 193.266 25.1501 192.515C24.8027 191.763 23.9119 191.436 23.1605 191.783C22.409 192.13 22.0814 193.021 22.4289 193.773C22.7763 194.524 23.6671 194.852 24.4186 194.504Z" fill="white"/>
<path d="M40.0443 187.281C40.7958 186.933 41.1233 186.042 40.7759 185.291C40.4285 184.54 39.5377 184.212 38.7862 184.559C38.0347 184.907 37.7072 185.798 38.0546 186.549C38.402 187.301 39.2928 187.628 40.0443 187.281Z" fill="white"/>
<path d="M56.4003 178.067C56.7463 178.816 56.4172 179.711 55.6688 180.057C54.9204 180.403 54.0251 180.074 53.6791 179.325C53.3331 178.577 53.6624 177.682 54.4107 177.336C55.1591 176.99 56.0544 177.319 56.4003 178.067Z" fill="white"/>
<path d="M71.2933 172.833C72.0447 172.486 72.3723 171.595 72.0249 170.844C71.6774 170.092 70.7866 169.765 70.0352 170.112C69.2837 170.46 68.9561 171.35 69.3035 172.102C69.651 172.853 70.5418 173.181 71.2933 172.833Z" fill="white"/>
<path d="M86.9178 165.61C87.6693 165.262 87.9968 164.372 87.6494 163.62C87.302 162.869 86.4112 162.541 85.6597 162.888C84.9083 163.236 84.5807 164.127 84.9281 164.878C85.2755 165.63 86.1664 165.957 86.9178 165.61Z" fill="white"/>
<path d="M102.542 158.386C103.294 158.039 103.621 157.148 103.274 156.396C102.926 155.645 102.036 155.317 101.284 155.665C100.533 156.012 100.205 156.903 100.553 157.654C100.9 158.406 101.791 158.733 102.542 158.386Z" fill="white"/>
<path d="M118.179 151.157C118.931 150.81 119.258 149.919 118.911 149.167C118.563 148.416 117.673 148.088 116.921 148.436C116.17 148.783 115.842 149.674 116.19 150.426C116.537 151.177 117.428 151.505 118.179 151.157Z" fill="white"/>
<path d="M133.804 143.934C134.555 143.586 134.883 142.696 134.535 141.944C134.188 141.193 133.297 140.865 132.545 141.213C131.794 141.56 131.466 142.451 131.814 143.202C132.161 143.954 133.052 144.281 133.804 143.934Z" fill="white"/>
<path d="M149.428 136.71C150.18 136.363 150.507 135.472 150.16 134.721C149.812 133.969 148.922 133.642 148.17 133.989C147.419 134.337 147.091 135.227 147.439 135.979C147.786 136.73 148.677 137.058 149.428 136.71Z" fill="white"/>
<path d="M165.784 127.497C166.13 128.245 165.801 129.141 165.052 129.487C164.304 129.833 163.409 129.504 163.063 128.755C162.717 128.007 163.046 127.111 163.794 126.765C164.543 126.419 165.438 126.749 165.784 127.497Z" fill="white"/>
<path d="M180.677 122.263C181.429 121.916 181.756 121.025 181.409 120.273C181.061 119.522 180.171 119.194 179.419 119.542C178.668 119.889 178.34 120.78 178.688 121.532C179.035 122.283 179.926 122.611 180.677 122.263Z" fill="white"/>
<path d="M196.301 115.039C197.053 114.692 197.38 113.801 197.033 113.05C196.686 112.298 195.795 111.971 195.043 112.318C194.292 112.666 193.964 113.556 194.312 114.308C194.659 115.059 195.55 115.387 196.301 115.039Z" fill="white"/>
<path d="M211.938 107.81C212.69 107.463 213.017 106.572 212.67 105.82C212.322 105.069 211.432 104.741 210.68 105.089C209.929 105.436 209.601 106.327 209.949 107.079C210.296 107.83 211.187 108.158 211.938 107.81Z" fill="white"/>
<path d="M227.563 100.586C228.315 100.239 228.642 99.3481 228.295 98.5967C227.947 97.8452 227.056 97.5177 226.305 97.8651C225.554 98.2125 225.226 99.1033 225.573 99.8548C225.921 100.606 226.812 100.934 227.563 100.586Z" fill="white"/>
<path d="M243.187 93.3628C243.939 93.0154 244.266 92.1246 243.919 91.3732C243.571 90.6217 242.681 90.2942 241.929 90.6416C241.178 90.989 240.85 91.8798 241.198 92.6313C241.545 93.3827 242.436 93.7103 243.187 93.3628Z" fill="white"/>
<path d="M258.812 86.1396C259.564 85.7922 259.891 84.9013 259.544 84.1499C259.196 83.3984 258.305 83.0709 257.554 83.4183C256.803 83.7657 256.475 84.6565 256.822 85.408C257.17 86.1595 258.061 86.487 258.812 86.1396Z" fill="white"/>
<path d="M274.436 78.9159C275.188 78.5685 275.515 77.6777 275.168 76.9263C274.82 76.1748 273.929 75.8473 273.178 76.1947C272.427 76.5421 272.099 77.4329 272.446 78.1844C272.794 78.9358 273.685 79.2634 274.436 78.9159Z" fill="white"/>
<path d="M290.062 71.6925C290.814 71.3451 291.141 70.4543 290.794 69.7028C290.446 68.9513 289.555 68.6238 288.804 68.9712C288.052 69.3186 287.725 70.2095 288.072 70.9609C288.42 71.7124 289.311 72.0399 290.062 71.6925Z" fill="white"/>
<path d="M306.418 62.479C306.764 63.2274 306.434 64.1227 305.686 64.4687C304.938 64.8147 304.042 64.4855 303.696 63.7371C303.35 62.9887 303.68 62.0934 304.428 61.7474C305.188 61.3962 306.072 61.7307 306.418 62.479Z" fill="white"/>
<path d="M321.322 57.2397C322.073 56.8923 322.401 56.0014 322.054 55.25C321.706 54.4985 320.815 54.171 320.064 54.5184C319.312 54.8658 318.985 55.7566 319.332 56.5081C319.68 57.2596 320.571 57.5871 321.322 57.2397Z" fill="white"/>
<path d="M336.947 50.016C337.698 49.6686 338.026 48.7778 337.678 48.0264C337.331 47.2749 336.44 46.9474 335.689 47.2948C334.937 47.6422 334.61 48.533 334.957 49.2845C335.305 50.0359 336.195 50.3635 336.947 50.016Z" fill="white"/>
<path d="M31.485 209.789C32.2364 209.441 32.5639 208.55 32.2165 207.799C31.8691 207.047 30.9783 206.72 30.2269 207.067C29.4754 207.415 29.1478 208.305 29.4953 209.057C29.8427 209.808 30.7335 210.136 31.485 209.789Z" fill="white"/>
<path d="M47.11 202.565C47.8614 202.217 48.189 201.327 47.8416 200.575C47.4942 199.824 46.6033 199.496 45.8519 199.844C45.1004 200.191 44.7728 201.082 45.1203 201.833C45.4677 202.585 46.3585 202.912 47.11 202.565Z" fill="white"/>
<path d="M63.4655 193.352C63.8115 194.1 63.4823 194.995 62.734 195.341C61.9856 195.687 61.0903 195.358 60.7443 194.61C60.3983 193.861 60.7275 192.966 61.4759 192.62C62.2242 192.274 63.1195 192.603 63.4655 193.352Z" fill="white"/>
<path d="M78.3589 188.118C79.1104 187.77 79.4379 186.879 79.0905 186.128C78.7431 185.376 77.8523 185.049 77.1008 185.396C76.3494 185.744 76.0218 186.635 76.3692 187.386C76.7166 188.137 77.6075 188.465 78.3589 188.118Z" fill="white"/>
<path d="M93.9847 180.894C94.7362 180.546 95.0637 179.656 94.7163 178.904C94.3689 178.153 93.4781 177.825 92.7266 178.173C91.9752 178.52 91.6476 179.411 91.995 180.162C92.3424 180.914 93.2333 181.241 93.9847 180.894Z" fill="white"/>
<path d="M109.609 173.671C110.361 173.323 110.688 172.433 110.341 171.681C109.993 170.93 109.103 170.602 108.351 170.95C107.6 171.297 107.272 172.188 107.619 172.939C107.967 173.691 108.858 174.018 109.609 173.671Z" fill="white"/>
<path d="M125.245 166.442C125.996 166.094 126.324 165.204 125.976 164.452C125.629 163.701 124.738 163.373 123.987 163.72C123.235 164.068 122.908 164.959 123.255 165.71C123.602 166.462 124.493 166.789 125.245 166.442Z" fill="white"/>
<path d="M140.869 159.218C141.62 158.871 141.948 157.98 141.6 157.228C141.253 156.477 140.362 156.15 139.611 156.497C138.859 156.844 138.532 157.735 138.879 158.487C139.226 159.238 140.117 159.566 140.869 159.218Z" fill="white"/>
<path d="M156.494 151.994C157.245 151.647 157.573 150.756 157.225 150.005C156.878 149.253 155.987 148.926 155.236 149.273C154.484 149.621 154.157 150.511 154.504 151.263C154.851 152.014 155.742 152.342 156.494 151.994Z" fill="white"/>
<path d="M172.851 142.781C173.197 143.53 172.868 144.425 172.12 144.771C171.371 145.117 170.476 144.788 170.13 144.039C169.784 143.291 170.113 142.396 170.862 142.05C171.61 141.704 172.505 142.033 172.851 142.781Z" fill="white"/>
<path d="M187.744 137.547C188.495 137.2 188.823 136.309 188.475 135.558C188.128 134.806 187.237 134.479 186.486 134.826C185.734 135.173 185.407 136.064 185.754 136.816C186.101 137.567 186.992 137.895 187.744 137.547Z" fill="white"/>
<path d="M203.369 130.324C204.12 129.976 204.448 129.085 204.1 128.334C203.753 127.583 202.862 127.255 202.111 127.602C201.359 127.95 201.032 128.841 201.379 129.592C201.726 130.344 202.617 130.671 203.369 130.324Z" fill="white"/>
<path d="M219.004 123.095C219.755 122.748 220.082 121.857 219.735 121.105C219.388 120.354 218.497 120.026 217.745 120.374C216.994 120.721 216.666 121.612 217.014 122.364C217.361 123.115 218.252 123.443 219.004 123.095Z" fill="white"/>
<path d="M234.628 115.871C235.38 115.524 235.707 114.633 235.36 113.882C235.013 113.13 234.122 112.803 233.37 113.15C232.619 113.497 232.291 114.388 232.639 115.14C232.986 115.891 233.877 116.219 234.628 115.871Z" fill="white"/>
<path d="M250.255 108.647C251.006 108.3 251.333 107.409 250.986 106.658C250.639 105.906 249.748 105.579 248.996 105.926C248.245 106.274 247.917 107.164 248.265 107.916C248.612 108.667 249.503 108.995 250.255 108.647Z" fill="white"/>
<path d="M265.879 101.424C266.63 101.076 266.958 100.186 266.61 99.4341C266.263 98.6826 265.372 98.3551 264.62 98.7025C263.869 99.0499 263.541 99.9407 263.889 100.692C264.236 101.444 265.127 101.771 265.879 101.424Z" fill="white"/>
<path d="M281.504 94.2001C282.255 93.8527 282.582 92.9619 282.235 92.2105C281.888 91.459 280.997 91.1314 280.245 91.4789C279.494 91.8263 279.166 92.7171 279.514 93.4685C279.861 94.22 280.752 94.5476 281.504 94.2001Z" fill="white"/>
<path d="M297.128 86.9767C297.879 86.6293 298.207 85.7384 297.859 84.987C297.512 84.2355 296.621 83.908 295.87 84.2554C295.118 84.6028 294.791 85.4936 295.138 86.2451C295.485 86.9966 296.376 87.3241 297.128 86.9767Z" fill="white"/>
<path d="M313.484 77.7632C313.83 78.5116 313.501 79.4069 312.753 79.7529C312.004 80.0989 311.109 79.7696 310.763 79.0213C310.417 78.2729 310.746 77.3776 311.494 77.0316C312.254 76.6804 313.138 77.0148 313.484 77.7632Z" fill="white"/>
<path d="M328.389 72.5244C329.141 72.1769 329.468 71.2861 329.121 70.5347C328.773 69.7832 327.883 69.4557 327.131 69.8031C326.38 70.1505 326.052 71.0413 326.4 71.7928C326.747 72.5442 327.638 72.8718 328.389 72.5244Z" fill="white"/>
<path d="M344.013 65.3009C344.765 64.9534 345.092 64.0626 344.745 63.3112C344.398 62.5597 343.507 62.2321 342.755 62.5796C342.004 62.927 341.676 63.8178 342.024 64.5693C342.371 65.3207 343.262 65.6483 344.013 65.3009Z" fill="white"/>
<path d="M38.5514 225.073C39.3028 224.726 39.6303 223.835 39.2829 223.084C38.9355 222.332 38.0447 222.004 37.2933 222.352C36.5418 222.699 36.2143 223.59 36.5617 224.342C36.9091 225.093 37.7999 225.421 38.5514 225.073Z" fill="white"/>
<path d="M54.1764 217.85C54.9278 217.502 55.2554 216.611 54.908 215.86C54.5606 215.108 53.6697 214.781 52.9183 215.128C52.1668 215.476 51.8393 216.367 52.1867 217.118C52.5341 217.869 53.4249 218.197 54.1764 217.85Z" fill="white"/>
<path d="M70.5329 208.636C70.8789 209.385 70.5497 210.28 69.8014 210.626C69.053 210.972 68.1576 210.643 67.8117 209.894C67.4657 209.146 67.7949 208.251 68.5433 207.905C69.2916 207.559 70.1869 207.888 70.5329 208.636Z" fill="white"/>
<path d="M85.4254 203.402C86.1769 203.055 86.5044 202.164 86.157 201.413C85.8096 200.661 84.9188 200.334 84.1673 200.681C83.4158 201.028 83.0883 201.919 83.4357 202.671C83.7831 203.422 84.6739 203.75 85.4254 203.402Z" fill="white"/>
<path d="M101.05 196.179C101.802 195.831 102.129 194.94 101.782 194.189C101.435 193.437 100.544 193.11 99.7923 193.457C99.0408 193.805 98.7133 194.696 99.0607 195.447C99.4081 196.199 100.299 196.526 101.05 196.179Z" fill="white"/>
<path d="M116.674 188.955C117.426 188.608 117.753 187.717 117.406 186.965C117.059 186.214 116.168 185.886 115.416 186.234C114.665 186.581 114.337 187.472 114.685 188.223C115.032 188.975 115.923 189.302 116.674 188.955Z" fill="white"/>
<path d="M132.311 181.726C133.063 181.379 133.39 180.488 133.043 179.737C132.695 178.985 131.804 178.658 131.053 179.005C130.302 179.353 129.974 180.243 130.321 180.995C130.669 181.746 131.56 182.074 132.311 181.726Z" fill="white"/>
<path d="M147.936 174.503C148.688 174.155 149.015 173.265 148.668 172.513C148.32 171.762 147.429 171.434 146.678 171.782C145.927 172.129 145.599 173.02 145.946 173.771C146.294 174.523 147.185 174.85 147.936 174.503Z" fill="white"/>
<path d="M163.56 167.279C164.312 166.932 164.639 166.041 164.292 165.29C163.944 164.538 163.054 164.211 162.302 164.558C161.551 164.905 161.223 165.796 161.57 166.548C161.918 167.299 162.809 167.627 163.56 167.279Z" fill="white"/>
<path d="M179.917 158.066C180.263 158.814 179.933 159.71 179.185 160.056C178.437 160.401 177.541 160.072 177.195 159.324C176.849 158.576 177.179 157.68 177.927 157.334C178.675 156.988 179.571 157.317 179.917 158.066Z" fill="white"/>
<path d="M194.809 152.832C195.561 152.485 195.888 151.594 195.541 150.842C195.193 150.091 194.303 149.763 193.551 150.111C192.8 150.458 192.472 151.349 192.819 152.1C193.167 152.852 194.058 153.179 194.809 152.832Z" fill="white"/>
<path d="M210.434 145.608C211.186 145.261 211.513 144.37 211.166 143.619C210.818 142.867 209.927 142.54 209.176 142.887C208.425 143.234 208.097 144.125 208.444 144.877C208.792 145.628 209.683 145.956 210.434 145.608Z" fill="white"/>
<path d="M226.071 138.38C226.822 138.032 227.15 137.141 226.802 136.39C226.455 135.639 225.564 135.311 224.813 135.658C224.061 136.006 223.734 136.897 224.081 137.648C224.429 138.4 225.319 138.727 226.071 138.38Z" fill="white"/>
<path d="M241.695 131.156C242.446 130.809 242.774 129.918 242.427 129.166C242.079 128.415 241.188 128.087 240.437 128.435C239.685 128.782 239.358 129.673 239.705 130.425C240.053 131.176 240.943 131.504 241.695 131.156Z" fill="white"/>
<path d="M257.32 123.932C258.071 123.585 258.399 122.694 258.051 121.943C257.704 121.191 256.813 120.864 256.062 121.211C255.31 121.559 254.983 122.449 255.33 123.201C255.678 123.952 256.568 124.28 257.32 123.932Z" fill="white"/>
<path d="M272.944 116.709C273.695 116.362 274.023 115.471 273.676 114.719C273.328 113.968 272.437 113.64 271.686 113.988C270.934 114.335 270.607 115.226 270.954 115.977C271.302 116.729 272.192 117.056 272.944 116.709Z" fill="white"/>
<path d="M288.569 109.485C289.32 109.138 289.648 108.247 289.3 107.495C288.953 106.744 288.062 106.416 287.311 106.764C286.559 107.111 286.232 108.002 286.579 108.753C286.927 109.505 287.817 109.832 288.569 109.485Z" fill="white"/>
<path d="M304.195 102.262C304.946 101.914 305.274 101.023 304.927 100.272C304.579 99.5205 303.688 99.193 302.937 99.5404C302.185 99.8878 301.858 100.779 302.205 101.53C302.553 102.282 303.443 102.609 304.195 102.262Z" fill="white"/>
<path d="M320.55 93.0479C320.896 93.7962 320.567 94.6916 319.819 95.0375C319.071 95.3835 318.175 95.0543 317.829 94.3059C317.483 93.5576 317.812 92.6622 318.561 92.3163C319.321 91.965 320.205 92.2995 320.55 93.0479Z" fill="white"/>
<path d="M335.455 87.8093C336.206 87.4618 336.534 86.571 336.186 85.8196C335.839 85.0681 334.948 84.7406 334.197 85.088C333.445 85.4354 333.117 86.3262 333.465 87.0777C333.812 87.8291 334.703 88.1567 335.455 87.8093Z" fill="white"/>
<path d="M351.079 80.5854C351.83 80.238 352.158 79.3472 351.81 78.5957C351.463 77.8443 350.572 77.5167 349.821 77.8641C349.069 78.2115 348.742 79.1023 349.089 79.8538C349.436 80.6053 350.327 80.9328 351.079 80.5854Z" fill="white"/>
<path d="M45.618 240.357C46.3695 240.01 46.697 239.119 46.3496 238.368C46.0021 237.616 45.1114 237.289 44.3599 237.636C43.6085 237.984 43.2809 238.874 43.6283 239.626C43.9757 240.377 44.8666 240.705 45.618 240.357Z" fill="white"/>
<path d="M61.2428 233.134C61.9942 232.787 62.3218 231.896 61.9744 231.145C61.627 230.393 60.7361 230.066 59.9847 230.413C59.2332 230.76 58.9057 231.651 59.2531 232.403C59.6005 233.154 60.4913 233.482 61.2428 233.134Z" fill="white"/>
<path d="M77.5986 223.921C77.9446 224.669 77.6154 225.565 76.867 225.911C76.1187 226.257 75.2233 225.928 74.8773 225.179C74.5314 224.431 74.8606 223.535 75.6089 223.189C76.3625 222.855 77.2526 223.173 77.5986 223.921Z" fill="white"/>
<path d="M92.4918 218.687C93.2433 218.34 93.5708 217.449 93.2234 216.697C92.876 215.946 91.9852 215.618 91.2337 215.966C90.4822 216.313 90.1547 217.204 90.5021 217.955C90.8495 218.707 91.7403 219.034 92.4918 218.687Z" fill="white"/>
<path d="M108.117 211.463C108.868 211.116 109.196 210.225 108.848 209.474C108.501 208.722 107.61 208.395 106.859 208.742C106.107 209.089 105.78 209.98 106.127 210.732C106.475 211.483 107.365 211.811 108.117 211.463Z" fill="white"/>
<path d="M123.742 204.24C124.493 203.892 124.821 203.002 124.473 202.25C124.126 201.499 123.235 201.171 122.484 201.518C121.732 201.866 121.405 202.757 121.752 203.508C122.1 204.26 122.99 204.587 123.742 204.24Z" fill="white"/>
<path d="M139.377 197.011C140.129 196.663 140.456 195.772 140.109 195.021C139.761 194.269 138.871 193.942 138.119 194.289C137.368 194.637 137.04 195.528 137.388 196.279C137.735 197.03 138.626 197.358 139.377 197.011Z" fill="white"/>
<path d="M155.002 189.787C155.753 189.44 156.081 188.549 155.733 187.797C155.386 187.046 154.495 186.718 153.744 187.066C152.992 187.413 152.665 188.304 153.012 189.055C153.359 189.807 154.25 190.134 155.002 189.787Z" fill="white"/>
<path d="M170.627 182.563C171.379 182.216 171.706 181.325 171.359 180.574C171.012 179.822 170.121 179.495 169.369 179.842C168.618 180.189 168.29 181.08 168.638 181.832C168.985 182.583 169.876 182.911 170.627 182.563Z" fill="white"/>
<path d="M186.983 173.351C187.329 174.099 187 174.994 186.252 175.34C185.503 175.686 184.608 175.357 184.262 174.609C183.916 173.86 184.245 172.965 184.993 172.619C185.747 172.284 186.637 172.602 186.983 173.351Z" fill="white"/>
<path d="M201.877 168.117C202.628 167.769 202.955 166.878 202.608 166.127C202.261 165.376 201.37 165.048 200.618 165.395C199.867 165.743 199.539 166.634 199.887 167.385C200.234 168.137 201.125 168.464 201.877 168.117Z" fill="white"/>
<path d="M217.501 160.893C218.252 160.546 218.58 159.655 218.232 158.903C217.885 158.152 216.994 157.824 216.242 158.172C215.491 158.519 215.163 159.41 215.511 160.161C215.858 160.913 216.749 161.24 217.501 160.893Z" fill="white"/>
<path d="M233.137 153.664C233.888 153.316 234.215 152.426 233.868 151.674C233.521 150.923 232.63 150.595 231.878 150.943C231.127 151.29 230.799 152.181 231.147 152.932C231.494 153.684 232.385 154.011 233.137 153.664Z" fill="white"/>
<path d="M248.762 146.44C249.514 146.093 249.841 145.202 249.494 144.45C249.146 143.699 248.256 143.371 247.504 143.719C246.753 144.066 246.425 144.957 246.773 145.709C247.12 146.46 248.011 146.788 248.762 146.44Z" fill="white"/>
<path d="M264.386 139.217C265.138 138.869 265.465 137.979 265.118 137.227C264.77 136.476 263.88 136.148 263.128 136.495C262.377 136.843 262.049 137.734 262.397 138.485C262.744 139.237 263.635 139.564 264.386 139.217Z" fill="white"/>
<path d="M280.011 131.993C280.763 131.645 281.09 130.755 280.743 130.003C280.395 129.252 279.505 128.924 278.753 129.272C278.002 129.619 277.674 130.51 278.022 131.261C278.369 132.013 279.26 132.34 280.011 131.993Z" fill="white"/>
<path d="M295.635 124.769C296.387 124.422 296.714 123.531 296.367 122.78C296.019 122.028 295.129 121.701 294.377 122.048C293.626 122.396 293.298 123.286 293.646 124.038C293.993 124.789 294.884 125.117 295.635 124.769Z" fill="white"/>
<path d="M311.26 117.546C312.012 117.199 312.339 116.308 311.992 115.557C311.644 114.805 310.754 114.478 310.002 114.825C309.251 115.172 308.923 116.063 309.271 116.815C309.618 117.566 310.509 117.894 311.26 117.546Z" fill="white"/>
<path d="M327.616 108.333C327.962 109.081 327.633 109.977 326.884 110.323C326.136 110.669 325.241 110.339 324.895 109.591C324.549 108.843 324.878 107.947 325.626 107.601C326.391 107.262 327.27 107.585 327.616 108.333Z" fill="white"/>
<path d="M342.521 103.093C343.273 102.746 343.6 101.855 343.253 101.103C342.905 100.352 342.014 100.025 341.263 100.372C340.512 100.719 340.184 101.61 340.531 102.362C340.879 103.113 341.77 103.441 342.521 103.093Z" fill="white"/>
<path d="M358.146 95.8697C358.897 95.5223 359.225 94.6315 358.878 93.8801C358.53 93.1286 357.639 92.8011 356.888 93.1485C356.136 93.4959 355.809 94.3867 356.156 95.1382C356.504 95.8896 357.395 96.2172 358.146 95.8697Z" fill="white"/>
<path d="M52.6901 255.654C53.4415 255.306 53.769 254.416 53.4216 253.664C53.0742 252.913 52.1834 252.585 51.4319 252.932C50.6805 253.28 50.3529 254.171 50.7003 254.922C51.0478 255.674 51.9386 256.001 52.6901 255.654Z" fill="white"/>
<path d="M68.3143 248.43C69.0658 248.083 69.3933 247.192 69.0459 246.44C68.6985 245.689 67.8077 245.361 67.0562 245.709C66.3048 246.056 65.9772 246.947 66.3246 247.699C66.672 248.45 67.5629 248.778 68.3143 248.43Z" fill="white"/>
<path d="M84.6706 239.217C85.0166 239.965 84.6874 240.861 83.9391 241.206C83.1907 241.552 82.2953 241.223 81.9494 240.475C81.6034 239.727 81.9326 238.831 82.681 238.485C83.4293 238.139 84.3194 238.457 84.6706 239.217Z" fill="white"/>
<path d="M99.5633 233.983C100.315 233.635 100.642 232.745 100.295 231.993C99.9475 231.242 99.0566 230.914 98.3052 231.262C97.5537 231.609 97.2262 232.5 97.5736 233.251C97.921 234.003 98.8118 234.33 99.5633 233.983Z" fill="white"/>
<path d="M115.188 226.759C115.939 226.412 116.267 225.521 115.919 224.769C115.572 224.018 114.681 223.69 113.93 224.038C113.178 224.385 112.851 225.276 113.198 226.028C113.546 226.779 114.436 227.107 115.188 226.759Z" fill="white"/>
<path d="M130.813 219.536C131.565 219.188 131.892 218.297 131.545 217.546C131.197 216.794 130.306 216.467 129.555 216.814C128.804 217.162 128.476 218.053 128.823 218.804C129.171 219.555 130.062 219.883 130.813 219.536Z" fill="white"/>
<path d="M146.449 212.307C147.2 211.959 147.528 211.068 147.18 210.317C146.833 209.565 145.942 209.238 145.191 209.585C144.439 209.933 144.112 210.824 144.459 211.575C144.807 212.326 145.697 212.654 146.449 212.307Z" fill="white"/>
<path d="M162.074 205.083C162.825 204.736 163.153 203.845 162.805 203.094C162.458 202.342 161.567 202.015 160.815 202.362C160.064 202.709 159.736 203.6 160.084 204.352C160.431 205.103 161.322 205.431 162.074 205.083Z" fill="white"/>
<path d="M178.534 196.067C178.305 195.271 177.475 194.811 176.679 195.04C175.883 195.269 175.423 196.099 175.652 196.895C175.881 197.69 176.711 198.15 177.507 197.921C178.303 197.693 178.762 196.862 178.534 196.067Z" fill="white"/>
<path d="M194.054 188.646C194.4 189.395 194.071 190.29 193.323 190.636C192.575 190.982 191.679 190.653 191.333 189.905C190.987 189.156 191.316 188.261 192.065 187.915C192.813 187.569 193.703 187.887 194.054 188.646Z" fill="white"/>
<path d="M208.948 183.413C209.699 183.065 210.027 182.174 209.679 181.423C209.332 180.671 208.441 180.344 207.69 180.691C206.938 181.039 206.611 181.93 206.958 182.681C207.306 183.432 208.196 183.76 208.948 183.413Z" fill="white"/>
<path d="M224.573 176.189C225.324 175.841 225.652 174.95 225.304 174.199C224.957 173.448 224.066 173.12 223.315 173.467C222.563 173.815 222.236 174.706 222.583 175.457C222.931 176.209 223.821 176.536 224.573 176.189Z" fill="white"/>
<path d="M240.209 168.959C240.96 168.612 241.288 167.721 240.94 166.97C240.593 166.218 239.702 165.891 238.95 166.238C238.199 166.586 237.871 167.476 238.219 168.228C238.566 168.979 239.457 169.307 240.209 168.959Z" fill="white"/>
<path d="M255.833 161.736C256.584 161.389 256.912 160.498 256.564 159.746C256.217 158.995 255.326 158.667 254.575 159.015C253.823 159.362 253.496 160.253 253.843 161.004C254.191 161.756 255.081 162.083 255.833 161.736Z" fill="white"/>
<path d="M271.459 154.513C272.21 154.166 272.538 153.275 272.19 152.523C271.843 151.772 270.952 151.444 270.2 151.792C269.449 152.139 269.121 153.03 269.469 153.782C269.816 154.533 270.707 154.861 271.459 154.513Z" fill="white"/>
<path d="M287.889 145.476C287.639 144.686 286.796 144.25 286.007 144.5C285.218 144.751 284.781 145.593 285.032 146.382C285.282 147.172 286.125 147.608 286.914 147.358C287.703 147.107 288.14 146.265 287.889 145.476Z" fill="white"/>
<path d="M302.708 140.066C303.459 139.718 303.786 138.827 303.439 138.076C303.092 137.324 302.201 136.997 301.449 137.344C300.698 137.692 300.37 138.583 300.718 139.334C301.065 140.085 301.956 140.413 302.708 140.066Z" fill="white"/>
<path d="M318.332 132.842C319.083 132.494 319.411 131.604 319.063 130.852C318.716 130.101 317.825 129.773 317.074 130.12C316.322 130.468 315.995 131.359 316.342 132.11C316.689 132.862 317.58 133.189 318.332 132.842Z" fill="white"/>
<path d="M334.688 123.629C335.034 124.377 334.705 125.272 333.957 125.618C333.208 125.964 332.313 125.635 331.967 124.887C331.621 124.138 331.95 123.243 332.698 122.897C333.458 122.546 334.337 122.869 334.688 123.629Z" fill="white"/>
<path d="M349.593 118.389C350.345 118.042 350.672 117.151 350.325 116.399C349.977 115.648 349.087 115.32 348.335 115.668C347.584 116.015 347.256 116.906 347.604 117.658C347.951 118.409 348.842 118.737 349.593 118.389Z" fill="white"/>
<path d="M365.217 111.165C365.969 110.818 366.296 109.927 365.949 109.176C365.602 108.424 364.711 108.097 363.959 108.444C363.208 108.792 362.88 109.682 363.228 110.434C363.575 111.185 364.466 111.513 365.217 111.165Z" fill="white"/>
<path d="M60.5816 269.16C60.3596 268.363 59.533 267.896 58.7355 268.118C57.9379 268.341 57.4714 269.167 57.6934 269.965C57.9155 270.762 58.7421 271.229 59.5396 271.007C60.3372 270.785 60.8037 269.958 60.5816 269.16Z" fill="white"/>
<path d="M76.2088 261.938C75.9867 261.141 75.1601 260.674 74.3626 260.896C73.565 261.118 73.0985 261.945 73.3206 262.742C73.5426 263.54 74.3692 264.007 75.1668 263.784C75.9643 263.562 76.4308 262.736 76.2088 261.938Z" fill="white"/>
<path d="M91.7373 254.501C92.0832 255.249 91.7541 256.145 91.0057 256.491C90.2574 256.837 89.362 256.507 89.016 255.759C88.67 255.011 88.9993 254.115 89.7476 253.769C90.496 253.423 91.3913 253.753 91.7373 254.501Z" fill="white"/>
<path d="M107.406 247.431C107.148 246.645 106.301 246.215 105.515 246.473C104.728 246.73 104.299 247.577 104.556 248.364C104.814 249.151 105.66 249.58 106.447 249.322C107.234 249.065 107.663 248.218 107.406 247.431Z" fill="white"/>
<path d="M123.09 240.269C122.868 239.472 122.041 239.005 121.243 239.227C120.446 239.449 119.979 240.276 120.201 241.073C120.423 241.871 121.25 242.338 122.048 242.115C122.845 241.893 123.312 241.067 123.09 240.269Z" fill="white"/>
<path d="M138.718 233.046C138.496 232.249 137.669 231.782 136.871 232.004C136.074 232.226 135.607 233.053 135.829 233.851C136.051 234.648 136.878 235.115 137.676 234.893C138.473 234.671 138.94 233.844 138.718 233.046Z" fill="white"/>
<path d="M154.341 225.812C154.119 225.014 153.292 224.548 152.494 224.77C151.697 224.992 151.23 225.818 151.452 226.616C151.674 227.413 152.501 227.88 153.299 227.658C154.096 227.436 154.563 226.609 154.341 225.812Z" fill="white"/>
<path d="M169.968 218.589C169.745 217.791 168.919 217.325 168.121 217.547C167.324 217.769 166.857 218.595 167.079 219.393C167.301 220.19 168.128 220.657 168.926 220.435C169.723 220.213 170.19 219.386 169.968 218.589Z" fill="white"/>
<path d="M184.765 213.144C185.517 212.797 185.844 211.906 185.497 211.154C185.149 210.403 184.259 210.075 183.507 210.423C182.756 210.77 182.428 211.661 182.776 212.412C183.123 213.164 184.014 213.491 184.765 213.144Z" fill="white"/>
<path d="M201.121 203.931C201.467 204.679 201.138 205.574 200.389 205.92C199.641 206.266 198.746 205.937 198.4 205.189C198.054 204.44 198.383 203.545 199.131 203.199C199.88 202.853 200.775 203.182 201.121 203.931Z" fill="white"/>
<path d="M216.85 196.92C216.628 196.123 215.802 195.656 215.004 195.878C214.207 196.1 213.74 196.927 213.962 197.724C214.184 198.522 215.011 198.988 215.808 198.766C216.606 198.544 217.072 197.718 216.85 196.92Z" fill="white"/>
<path d="M232.477 189.697C232.255 188.899 231.429 188.433 230.631 188.655C229.834 188.877 229.367 189.704 229.589 190.501C229.811 191.299 230.638 191.765 231.435 191.543C232.233 191.321 232.699 190.495 232.477 189.697Z" fill="white"/>
<path d="M248.1 182.463C247.878 181.665 247.052 181.199 246.254 181.421C245.456 181.643 244.99 182.469 245.212 183.267C245.434 184.064 246.261 184.531 247.058 184.309C247.856 184.087 248.322 183.26 248.1 182.463Z" fill="white"/>
<path d="M263.728 175.24C263.506 174.442 262.68 173.975 261.882 174.198C261.085 174.42 260.618 175.246 260.84 176.044C261.062 176.841 261.889 177.308 262.686 177.086C263.484 176.864 263.95 176.037 263.728 175.24Z" fill="white"/>
<path d="M279.355 168.017C279.133 167.22 278.307 166.753 277.509 166.975C276.712 167.197 276.245 168.024 276.467 168.821C276.689 169.619 277.516 170.085 278.313 169.863C279.111 169.641 279.577 168.815 279.355 168.017Z" fill="white"/>
<path d="M294.149 162.573C294.9 162.226 295.228 161.335 294.881 160.583C294.533 159.832 293.642 159.504 292.891 159.852C292.139 160.199 291.812 161.09 292.159 161.842C292.507 162.593 293.398 162.921 294.149 162.573Z" fill="white"/>
<path d="M310.609 153.571C310.387 152.773 309.561 152.307 308.763 152.529C307.965 152.751 307.499 153.578 307.721 154.375C307.943 155.173 308.77 155.639 309.567 155.417C310.365 155.195 310.831 154.369 310.609 153.571Z" fill="white"/>
<path d="M326.236 146.349C326.014 145.551 325.187 145.085 324.39 145.307C323.592 145.529 323.126 146.355 323.348 147.153C323.57 147.95 324.397 148.417 325.194 148.195C325.992 147.973 326.458 147.146 326.236 146.349Z" fill="white"/>
<path d="M341.755 138.913C342.101 139.661 341.771 140.556 341.023 140.902C340.275 141.248 339.379 140.919 339.033 140.171C338.687 139.422 339.017 138.527 339.765 138.181C340.525 137.83 341.409 138.164 341.755 138.913Z" fill="white"/>
<path d="M357.511 131.861C357.243 131.078 356.391 130.66 355.608 130.928C354.824 131.196 354.406 132.048 354.674 132.831C354.942 133.614 355.794 134.032 356.578 133.765C357.361 133.497 357.779 132.645 357.511 131.861Z" fill="white"/>
<path d="M373.115 124.668C372.893 123.87 372.066 123.404 371.269 123.626C370.471 123.848 370.005 124.674 370.227 125.472C370.449 126.269 371.275 126.736 372.073 126.514C372.871 126.292 373.337 125.465 373.115 124.668Z" fill="white"/>
<path d="M66.8219 286.223C67.5733 285.875 67.9008 284.984 67.5534 284.233C67.206 283.481 66.3152 283.154 65.5638 283.501C64.8123 283.849 64.4848 284.74 64.8322 285.491C65.1796 286.242 66.0704 286.57 66.8219 286.223Z" fill="white"/>
<path d="M82.4469 278.999C83.1983 278.652 83.5259 277.761 83.1785 277.009C82.8311 276.258 81.9402 275.93 81.1888 276.278C80.4373 276.625 80.1098 277.516 80.4572 278.267C80.8046 279.019 81.6954 279.346 82.4469 278.999Z" fill="white"/>
<path d="M98.8024 269.786C99.1484 270.534 98.8193 271.429 98.0709 271.775C97.3225 272.121 96.4272 271.792 96.0812 271.044C95.7352 270.295 96.0645 269.4 96.8128 269.054C97.5612 268.708 98.4565 269.037 98.8024 269.786Z" fill="white"/>
<path d="M113.696 264.552C114.447 264.204 114.775 263.313 114.427 262.562C114.08 261.811 113.189 261.483 112.438 261.83C111.686 262.178 111.359 263.069 111.706 263.82C112.054 264.572 112.944 264.899 113.696 264.552Z" fill="white"/>
<path d="M129.322 257.328C130.073 256.981 130.401 256.09 130.053 255.338C129.706 254.587 128.815 254.259 128.064 254.607C127.312 254.954 126.985 255.845 127.332 256.596C127.68 257.348 128.57 257.675 129.322 257.328Z" fill="white"/>
<path d="M144.946 250.104C145.698 249.757 146.025 248.866 145.678 248.115C145.33 247.363 144.439 247.036 143.688 247.383C142.937 247.731 142.609 248.621 142.956 249.373C143.304 250.124 144.195 250.452 144.946 250.104Z" fill="white"/>
<path d="M160.582 242.876C161.333 242.528 161.661 241.638 161.313 240.886C160.966 240.135 160.075 239.807 159.323 240.155C158.572 240.502 158.244 241.393 158.592 242.144C158.939 242.896 159.83 243.223 160.582 242.876Z" fill="white"/>
<path d="M176.206 235.652C176.957 235.305 177.285 234.414 176.937 233.663C176.59 232.911 175.699 232.584 174.948 232.931C174.196 233.278 173.869 234.169 174.216 234.921C174.563 235.672 175.454 236 176.206 235.652Z" fill="white"/>
<path d="M191.831 228.429C192.582 228.081 192.91 227.19 192.562 226.439C192.215 225.687 191.324 225.36 190.573 225.707C189.821 226.055 189.493 226.946 189.841 227.697C190.188 228.448 191.079 228.776 191.831 228.429Z" fill="white"/>
<path d="M208.188 219.215C208.534 219.964 208.205 220.859 207.457 221.205C206.708 221.551 205.813 221.222 205.467 220.473C205.121 219.725 205.45 218.83 206.199 218.484C206.947 218.138 207.842 218.467 208.188 219.215Z" fill="white"/>
<path d="M223.081 213.981C223.832 213.634 224.16 212.743 223.812 211.992C223.465 211.24 222.574 210.913 221.823 211.26C221.071 211.607 220.744 212.498 221.091 213.25C221.439 214.001 222.329 214.329 223.081 213.981Z" fill="white"/>
<path d="M238.705 206.758C239.457 206.41 239.784 205.519 239.437 204.768C239.09 204.016 238.199 203.689 237.447 204.036C236.696 204.384 236.368 205.275 236.716 206.026C237.063 206.778 237.954 207.105 238.705 206.758Z" fill="white"/>
<path d="M254.34 199.529C255.092 199.182 255.419 198.291 255.072 197.54C254.725 196.788 253.834 196.461 253.082 196.808C252.331 197.155 252.003 198.046 252.351 198.798C252.698 199.549 253.589 199.877 254.34 199.529Z" fill="white"/>
<path d="M269.965 192.305C270.717 191.958 271.044 191.067 270.697 190.316C270.35 189.564 269.459 189.237 268.707 189.584C267.956 189.932 267.628 190.822 267.976 191.574C268.323 192.325 269.214 192.653 269.965 192.305Z" fill="white"/>
<path d="M285.591 185.082C286.343 184.735 286.67 183.844 286.323 183.092C285.976 182.341 285.085 182.013 284.333 182.361C283.582 182.708 283.254 183.599 283.602 184.35C283.949 185.102 284.84 185.429 285.591 185.082Z" fill="white"/>
<path d="M301.215 177.858C301.967 177.511 302.294 176.62 301.947 175.869C301.6 175.117 300.709 174.79 299.957 175.137C299.206 175.484 298.878 176.375 299.226 177.127C299.573 177.878 300.464 178.206 301.215 177.858Z" fill="white"/>
<path d="M316.84 170.635C317.592 170.287 317.919 169.396 317.572 168.645C317.225 167.894 316.334 167.566 315.582 167.913C314.831 168.261 314.503 169.152 314.851 169.903C315.198 170.655 316.089 170.982 316.84 170.635Z" fill="white"/>
<path d="M332.465 163.411C333.216 163.063 333.544 162.173 333.196 161.421C332.849 160.67 331.958 160.342 331.207 160.69C330.455 161.037 330.127 161.928 330.475 162.679C330.822 163.431 331.713 163.758 332.465 163.411Z" fill="white"/>
<path d="M348.821 154.198C349.167 154.946 348.838 155.841 348.089 156.187C347.341 156.533 346.446 156.204 346.1 155.456C345.754 154.707 346.083 153.812 346.831 153.466C347.591 153.115 348.475 153.449 348.821 154.198Z" fill="white"/>
<path d="M363.726 148.959C364.478 148.612 364.805 147.721 364.458 146.969C364.11 146.218 363.22 145.89 362.468 146.238C361.717 146.585 361.389 147.476 361.736 148.227C362.084 148.979 362.975 149.306 363.726 148.959Z" fill="white"/>
<path d="M379.351 141.735C380.103 141.387 380.43 140.497 380.083 139.745C379.735 138.994 378.845 138.666 378.093 139.014C377.342 139.361 377.014 140.252 377.361 141.003C377.709 141.755 378.6 142.082 379.351 141.735Z" fill="white"/>
<path d="M105.87 285.07C106.216 285.819 105.887 286.714 105.138 287.06C104.39 287.406 103.495 287.077 103.149 286.329C102.803 285.58 103.132 284.685 103.88 284.339C104.629 283.993 105.524 284.322 105.87 285.07Z" fill="white"/>
<path d="M120.762 279.836C121.514 279.489 121.841 278.598 121.494 277.847C121.147 277.095 120.256 276.768 119.504 277.115C118.753 277.462 118.425 278.353 118.773 279.105C119.12 279.856 120.011 280.184 120.762 279.836Z" fill="white"/>
<path d="M136.387 272.613C137.139 272.265 137.466 271.375 137.119 270.623C136.771 269.872 135.881 269.544 135.129 269.892C134.378 270.239 134.05 271.13 134.398 271.881C134.745 272.633 135.636 272.96 136.387 272.613Z" fill="white"/>
<path d="M152.011 265.389C152.763 265.042 153.09 264.151 152.743 263.399C152.396 262.648 151.505 262.32 150.753 262.668C150.002 263.015 149.674 263.906 150.022 264.658C150.369 265.409 151.26 265.737 152.011 265.389Z" fill="white"/>
<path d="M167.648 258.16C168.4 257.813 168.727 256.922 168.38 256.17C168.032 255.419 167.141 255.091 166.39 255.439C165.638 255.786 165.311 256.677 165.658 257.429C166.006 258.18 166.897 258.508 167.648 258.16Z" fill="white"/>
<path d="M183.273 250.936C184.024 250.589 184.352 249.698 184.005 248.947C183.657 248.195 182.766 247.868 182.015 248.215C181.263 248.563 180.936 249.453 181.283 250.205C181.631 250.956 182.522 251.284 183.273 250.936Z" fill="white"/>
<path d="M198.897 243.713C199.649 243.365 199.976 242.475 199.629 241.723C199.281 240.972 198.39 240.644 197.639 240.992C196.888 241.339 196.56 242.23 196.907 242.981C197.255 243.733 198.146 244.06 198.897 243.713Z" fill="white"/>
<path d="M215.254 234.5C215.6 235.248 215.27 236.144 214.522 236.49C213.774 236.836 212.878 236.506 212.532 235.758C212.186 235.01 212.516 234.114 213.264 233.768C214.012 233.422 214.908 233.752 215.254 234.5Z" fill="white"/>
<path d="M230.146 229.266C230.898 228.919 231.225 228.028 230.878 227.276C230.53 226.525 229.639 226.197 228.888 226.545C228.137 226.892 227.809 227.783 228.156 228.534C228.504 229.286 229.395 229.613 230.146 229.266Z" fill="white"/>
<path d="M245.771 222.042C246.523 221.695 246.85 220.804 246.503 220.053C246.155 219.301 245.264 218.974 244.513 219.321C243.761 219.669 243.434 220.559 243.781 221.311C244.129 222.062 245.02 222.39 245.771 222.042Z" fill="white"/>
<path d="M261.408 214.813C262.159 214.466 262.487 213.575 262.139 212.824C261.792 212.072 260.901 211.745 260.15 212.092C259.398 212.439 259.071 213.33 259.418 214.082C259.765 214.833 260.656 215.161 261.408 214.813Z" fill="white"/>
<path d="M277.032 207.59C277.783 207.242 278.111 206.352 277.763 205.6C277.416 204.849 276.525 204.521 275.774 204.869C275.022 205.216 274.695 206.107 275.042 206.858C275.39 207.61 276.28 207.937 277.032 207.59Z" fill="white"/>
<path d="M292.657 200.366C293.408 200.019 293.736 199.128 293.388 198.376C293.041 197.625 292.15 197.297 291.399 197.645C290.647 197.992 290.32 198.883 290.667 199.634C291.014 200.386 291.905 200.713 292.657 200.366Z" fill="white"/>
<path d="M308.281 193.143C309.032 192.795 309.36 191.904 309.012 191.153C308.665 190.401 307.774 190.074 307.023 190.421C306.271 190.769 305.944 191.659 306.291 192.411C306.639 193.162 307.529 193.49 308.281 193.143Z" fill="white"/>
<path d="M323.907 185.919C324.658 185.572 324.986 184.681 324.639 183.93C324.291 183.178 323.4 182.851 322.649 183.198C321.897 183.545 321.57 184.436 321.917 185.188C322.265 185.939 323.156 186.267 323.907 185.919Z" fill="white"/>
<path d="M339.532 178.696C340.283 178.348 340.611 177.458 340.263 176.706C339.916 175.955 339.025 175.627 338.274 175.974C337.522 176.322 337.195 177.213 337.542 177.964C337.89 178.716 338.78 179.043 339.532 178.696Z" fill="white"/>
<path d="M355.888 169.482C356.234 170.231 355.904 171.126 355.156 171.472C354.408 171.818 353.512 171.489 353.166 170.74C352.82 169.992 353.15 169.097 353.898 168.751C354.658 168.399 355.542 168.734 355.888 169.482Z" fill="white"/>
<path d="M370.792 164.243C371.543 163.895 371.871 163.005 371.523 162.253C371.176 161.502 370.285 161.174 369.533 161.522C368.782 161.869 368.454 162.76 368.802 163.511C369.149 164.263 370.04 164.59 370.792 164.243Z" fill="white"/>
<path d="M386.416 157.019C387.167 156.672 387.495 155.781 387.147 155.029C386.8 154.278 385.909 153.95 385.158 154.298C384.406 154.645 384.079 155.536 384.426 156.287C384.773 157.039 385.664 157.366 386.416 157.019Z" fill="white"/>
<path d="M143.454 287.897C144.205 287.549 144.533 286.659 144.185 285.907C143.838 285.156 142.947 284.828 142.196 285.176C141.444 285.523 141.117 286.414 141.464 287.165C141.811 287.917 142.702 288.244 143.454 287.897Z" fill="white"/>
<path d="M159.079 280.674C159.83 280.327 160.158 279.436 159.81 278.684C159.463 277.933 158.572 277.605 157.821 277.953C157.069 278.3 156.742 279.191 157.089 279.942C157.436 280.694 158.327 281.021 159.079 280.674Z" fill="white"/>
<path d="M174.714 273.445C175.466 273.097 175.793 272.207 175.446 271.455C175.099 270.704 174.208 270.376 173.456 270.723C172.705 271.071 172.377 271.962 172.725 272.713C173.072 273.465 173.963 273.792 174.714 273.445Z" fill="white"/>
<path d="M190.339 266.221C191.09 265.874 191.418 264.983 191.07 264.231C190.723 263.48 189.832 263.152 189.081 263.5C188.329 263.847 188.002 264.738 188.349 265.49C188.696 266.241 189.587 266.569 190.339 266.221Z" fill="white"/>
<path d="M205.964 258.998C206.716 258.65 207.043 257.759 206.696 257.008C206.349 256.256 205.458 255.929 204.706 256.276C203.955 256.624 203.627 257.514 203.975 258.266C204.322 259.017 205.213 259.345 205.964 258.998Z" fill="white"/>
<path d="M222.32 249.784C222.666 250.533 222.337 251.428 221.588 251.774C220.84 252.12 219.945 251.791 219.599 251.042C219.253 250.294 219.582 249.399 220.33 249.053C221.084 248.718 221.974 249.036 222.32 249.784Z" fill="white"/>
<path d="M237.213 244.55C237.965 244.203 238.292 243.312 237.945 242.561C237.598 241.809 236.707 241.482 235.955 241.829C235.204 242.176 234.876 243.067 235.224 243.819C235.571 244.57 236.462 244.898 237.213 244.55Z" fill="white"/>
<path d="M252.838 237.327C253.589 236.979 253.917 236.088 253.569 235.337C253.222 234.585 252.331 234.258 251.579 234.605C250.828 234.953 250.5 235.844 250.848 236.595C251.195 237.346 252.086 237.674 252.838 237.327Z" fill="white"/>
<path d="M268.473 230.098C269.225 229.751 269.552 228.86 269.205 228.108C268.858 227.357 267.967 227.029 267.215 227.377C266.464 227.724 266.136 228.615 266.484 229.366C266.831 230.118 267.722 230.445 268.473 230.098Z" fill="white"/>
<path d="M284.099 222.874C284.851 222.527 285.178 221.636 284.831 220.885C284.483 220.133 283.593 219.806 282.841 220.153C282.09 220.501 281.762 221.391 282.109 222.143C282.457 222.894 283.348 223.222 284.099 222.874Z" fill="white"/>
<path d="M299.723 215.651C300.475 215.303 300.802 214.413 300.455 213.661C300.107 212.91 299.217 212.582 298.465 212.93C297.714 213.277 297.386 214.168 297.734 214.919C298.081 215.671 298.972 215.998 299.723 215.651Z" fill="white"/>
<path d="M315.348 208.427C316.1 208.08 316.427 207.189 316.08 206.437C315.732 205.686 314.842 205.358 314.09 205.706C313.339 206.053 313.011 206.944 313.358 207.696C313.706 208.447 314.597 208.775 315.348 208.427Z" fill="white"/>
<path d="M330.972 201.204C331.724 200.856 332.051 199.965 331.704 199.214C331.356 198.462 330.466 198.135 329.714 198.482C328.963 198.83 328.635 199.721 328.983 200.472C329.33 201.223 330.221 201.551 330.972 201.204Z" fill="white"/>
<path d="M346.597 193.98C347.349 193.632 347.676 192.742 347.329 191.99C346.981 191.239 346.091 190.911 345.339 191.258C344.588 191.606 344.26 192.497 344.607 193.248C344.955 194 345.846 194.327 346.597 193.98Z" fill="white"/>
<path d="M362.953 184.767C363.299 185.515 362.97 186.41 362.221 186.756C361.473 187.102 360.578 186.773 360.232 186.025C359.886 185.276 360.215 184.381 360.963 184.035C361.728 183.695 362.607 184.018 362.953 184.767Z" fill="white"/>
<path d="M377.859 179.528C378.61 179.18 378.938 178.29 378.591 177.538C378.243 176.787 377.352 176.459 376.601 176.806C375.849 177.154 375.522 178.045 375.869 178.796C376.217 179.548 377.108 179.875 377.859 179.528Z" fill="white"/>
<path d="M393.482 172.304C394.233 171.957 394.561 171.066 394.214 170.314C393.866 169.563 392.975 169.235 392.224 169.583C391.472 169.93 391.145 170.821 391.492 171.573C391.84 172.324 392.731 172.652 393.482 172.304Z" fill="white"/>
<path d="M181.786 288.741C182.537 288.393 182.865 287.502 182.517 286.751C182.17 285.999 181.279 285.672 180.528 286.019C179.776 286.367 179.449 287.258 179.796 288.009C180.144 288.76 181.034 289.088 181.786 288.741Z" fill="white"/>
<path d="M197.41 281.517C198.162 281.17 198.489 280.279 198.142 279.527C197.795 278.776 196.904 278.448 196.152 278.796C195.401 279.143 195.073 280.034 195.421 280.785C195.768 281.537 196.659 281.864 197.41 281.517Z" fill="white"/>
<path d="M213.035 274.293C213.786 273.946 214.114 273.055 213.766 272.304C213.419 271.552 212.528 271.225 211.777 271.572C211.025 271.919 210.698 272.81 211.045 273.562C211.393 274.313 212.283 274.641 213.035 274.293Z" fill="white"/>
<path d="M229.392 265.08C229.738 265.828 229.409 266.724 228.661 267.07C227.912 267.416 227.017 267.086 226.671 266.338C226.325 265.59 226.654 264.694 227.403 264.348C228.151 264.002 229.041 264.32 229.392 265.08Z" fill="white"/>
<path d="M244.285 259.846C245.036 259.499 245.364 258.608 245.016 257.856C244.669 257.105 243.778 256.777 243.027 257.125C242.275 257.472 241.948 258.363 242.295 259.115C242.642 259.866 243.533 260.194 244.285 259.846Z" fill="white"/>
<path d="M259.91 252.623C260.661 252.276 260.989 251.385 260.641 250.633C260.294 249.882 259.403 249.554 258.652 249.902C257.9 250.249 257.573 251.14 257.92 251.891C258.267 252.643 259.158 252.97 259.91 252.623Z" fill="white"/>
<path d="M275.546 245.394C276.297 245.047 276.624 244.156 276.277 243.404C275.93 242.653 275.039 242.325 274.287 242.673C273.536 243.02 273.208 243.911 273.556 244.662C273.903 245.414 274.794 245.741 275.546 245.394Z" fill="white"/>
<path d="M291.17 238.17C291.921 237.823 292.249 236.932 291.901 236.181C291.554 235.429 290.663 235.102 289.911 235.449C289.16 235.796 288.832 236.687 289.18 237.439C289.527 238.19 290.418 238.518 291.17 238.17Z" fill="white"/>
<path d="M306.796 230.947C307.547 230.599 307.874 229.709 307.527 228.957C307.18 228.206 306.289 227.878 305.537 228.225C304.786 228.573 304.458 229.464 304.806 230.215C305.153 230.967 306.044 231.294 306.796 230.947Z" fill="white"/>
<path d="M322.42 223.723C323.171 223.375 323.499 222.484 323.151 221.733C322.804 220.981 321.913 220.654 321.161 221.001C320.41 221.349 320.082 222.24 320.43 222.991C320.777 223.742 321.668 224.07 322.42 223.723Z" fill="white"/>
<path d="M338.044 216.499C338.796 216.152 339.123 215.261 338.776 214.51C338.429 213.758 337.538 213.43 336.786 213.778C336.035 214.125 335.707 215.016 336.055 215.768C336.402 216.519 337.293 216.847 338.044 216.499Z" fill="white"/>
<path d="M353.669 209.275C354.42 208.928 354.748 208.037 354.4 207.286C354.053 206.534 353.162 206.207 352.41 206.554C351.659 206.901 351.331 207.792 351.679 208.544C352.026 209.295 352.917 209.623 353.669 209.275Z" fill="white"/>
<path d="M370.025 200.063C370.371 200.811 370.042 201.707 369.293 202.053C368.545 202.398 367.65 202.069 367.304 201.321C366.958 200.573 367.287 199.677 368.035 199.331C368.795 198.98 369.674 199.303 370.025 200.063Z" fill="white"/>
<path d="M384.929 194.823C385.681 194.476 386.008 193.585 385.661 192.833C385.313 192.082 384.423 191.754 383.671 192.102C382.92 192.449 382.592 193.34 382.94 194.092C383.287 194.843 384.178 195.171 384.929 194.823Z" fill="white"/>
<path d="M400.554 187.6C401.306 187.252 401.633 186.361 401.286 185.61C400.938 184.858 400.048 184.531 399.296 184.878C398.545 185.226 398.217 186.117 398.565 186.868C398.912 187.619 399.803 187.947 400.554 187.6Z" fill="white"/>
<path d="M220.102 289.578C220.854 289.231 221.181 288.34 220.834 287.588C220.486 286.837 219.596 286.509 218.844 286.857C218.093 287.204 217.765 288.095 218.112 288.846C218.46 289.598 219.351 289.925 220.102 289.578Z" fill="white"/>
<path d="M236.458 280.365C236.804 281.113 236.475 282.008 235.726 282.354C234.978 282.7 234.083 282.371 233.737 281.623C233.391 280.874 233.72 279.979 234.468 279.633C235.217 279.287 236.112 279.616 236.458 280.365Z" fill="white"/>
<path d="M251.351 275.131C252.103 274.783 252.43 273.893 252.083 273.141C251.735 272.39 250.845 272.062 250.093 272.41C249.342 272.757 249.014 273.648 249.361 274.399C249.709 275.151 250.6 275.478 251.351 275.131Z" fill="white"/>
<path d="M266.975 267.907C267.727 267.56 268.054 266.669 267.707 265.917C267.36 265.166 266.469 264.838 265.717 265.186C264.966 265.533 264.638 266.424 264.986 267.175C265.333 267.927 266.224 268.254 266.975 267.907Z" fill="white"/>
<path d="M282.612 260.679C283.364 260.331 283.691 259.44 283.344 258.689C282.996 257.937 282.105 257.61 281.354 257.957C280.603 258.305 280.275 259.195 280.622 259.947C280.97 260.698 281.861 261.026 282.612 260.679Z" fill="white"/>
<path d="M298.237 253.455C298.988 253.108 299.316 252.217 298.969 251.465C298.621 250.714 297.73 250.386 296.979 250.734C296.227 251.081 295.9 251.972 296.247 252.723C296.595 253.475 297.485 253.802 298.237 253.455Z" fill="white"/>
<path d="M313.861 246.231C314.613 245.884 314.94 244.993 314.593 244.242C314.245 243.49 313.354 243.163 312.603 243.51C311.852 243.857 311.524 244.748 311.871 245.5C312.219 246.251 313.11 246.579 313.861 246.231Z" fill="white"/>
<path d="M329.486 239.008C330.237 238.66 330.565 237.769 330.218 237.018C329.87 236.267 328.979 235.939 328.228 236.286C327.476 236.634 327.149 237.525 327.496 238.276C327.844 239.028 328.734 239.355 329.486 239.008Z" fill="white"/>
<path d="M345.11 231.784C345.862 231.437 346.189 230.546 345.842 229.794C345.494 229.043 344.603 228.715 343.852 229.063C343.101 229.41 342.773 230.301 343.12 231.052C343.468 231.804 344.359 232.131 345.11 231.784Z" fill="white"/>
<path d="M360.736 224.56C361.487 224.213 361.815 223.322 361.467 222.571C361.12 221.819 360.229 221.492 359.478 221.839C358.726 222.186 358.399 223.077 358.746 223.829C359.094 224.58 359.984 224.908 360.736 224.56Z" fill="white"/>
<path d="M377.092 215.347C377.438 216.096 377.109 216.991 376.361 217.337C375.613 217.683 374.717 217.354 374.371 216.605C374.025 215.857 374.355 214.962 375.103 214.616C375.863 214.264 376.747 214.599 377.092 215.347Z" fill="white"/>
<path d="M391.996 210.108C392.747 209.761 393.075 208.87 392.727 208.118C392.38 207.367 391.489 207.039 390.738 207.387C389.986 207.734 389.659 208.625 390.006 209.377C390.354 210.128 391.244 210.456 391.996 210.108Z" fill="white"/>
<path d="M407.621 202.885C408.372 202.537 408.7 201.646 408.352 200.895C408.005 200.144 407.114 199.816 406.363 200.163C405.611 200.511 405.284 201.402 405.631 202.153C405.978 202.905 406.869 203.232 407.621 202.885Z" fill="white"/>
<path d="M258.418 290.416C259.169 290.068 259.497 289.177 259.149 288.426C258.802 287.674 257.911 287.347 257.16 287.694C256.408 288.042 256.081 288.932 256.428 289.684C256.775 290.435 257.666 290.763 258.418 290.416Z" fill="white"/>
<path d="M274.043 283.192C274.794 282.844 275.122 281.954 274.774 281.202C274.427 280.451 273.536 280.123 272.784 280.471C272.033 280.818 271.705 281.709 272.053 282.46C272.4 283.212 273.291 283.539 274.043 283.192Z" fill="white"/>
<path d="M289.677 275.963C290.429 275.615 290.756 274.725 290.409 273.973C290.061 273.222 289.171 272.894 288.419 273.242C287.668 273.589 287.34 274.48 287.688 275.231C288.035 275.983 288.926 276.31 289.677 275.963Z" fill="white"/>
<path d="M305.303 268.739C306.055 268.392 306.383 267.501 306.035 266.749C305.688 265.998 304.797 265.67 304.045 266.018C303.294 266.365 302.966 267.256 303.314 268.007C303.661 268.759 304.552 269.086 305.303 268.739Z" fill="white"/>
<path d="M320.928 261.516C321.68 261.168 322.007 260.277 321.66 259.526C321.312 258.774 320.422 258.447 319.67 258.794C318.919 259.142 318.591 260.033 318.939 260.784C319.286 261.535 320.177 261.863 320.928 261.516Z" fill="white"/>
<path d="M336.553 254.292C337.304 253.945 337.632 253.054 337.284 252.303C336.937 251.551 336.046 251.224 335.294 251.571C334.543 251.918 334.215 252.809 334.563 253.561C334.91 254.312 335.801 254.64 336.553 254.292Z" fill="white"/>
<path d="M352.177 247.069C352.929 246.721 353.256 245.831 352.909 245.079C352.561 244.328 351.671 244 350.919 244.348C350.168 244.695 349.84 245.586 350.188 246.337C350.535 247.089 351.426 247.416 352.177 247.069Z" fill="white"/>
<path d="M367.802 239.845C368.553 239.498 368.881 238.607 368.533 237.855C368.186 237.104 367.295 236.776 366.543 237.124C365.792 237.471 365.464 238.362 365.812 239.113C366.159 239.865 367.05 240.193 367.802 239.845Z" fill="white"/>
<path d="M384.157 230.632C384.503 231.38 384.174 232.276 383.425 232.622C382.677 232.968 381.782 232.638 381.436 231.89C381.09 231.142 381.419 230.246 382.167 229.9C382.927 229.549 383.811 229.884 384.157 230.632Z" fill="white"/>
<path d="M399.062 225.392C399.814 225.045 400.141 224.154 399.794 223.402C399.446 222.651 398.555 222.323 397.804 222.671C397.053 223.018 396.725 223.909 397.072 224.66C397.42 225.412 398.311 225.739 399.062 225.392Z" fill="white"/>
<path d="M414.687 218.168C415.439 217.821 415.766 216.93 415.419 216.179C415.071 215.427 414.18 215.1 413.429 215.447C412.678 215.795 412.35 216.685 412.697 217.437C413.045 218.188 413.936 218.516 414.687 218.168Z" fill="white"/>
<path d="M296.745 291.247C297.496 290.9 297.824 290.009 297.476 289.258C297.129 288.506 296.238 288.179 295.487 288.526C294.735 288.874 294.408 289.764 294.755 290.516C295.102 291.267 295.993 291.595 296.745 291.247Z" fill="white"/>
<path d="M312.369 284.024C313.12 283.676 313.448 282.786 313.1 282.034C312.753 281.283 311.862 280.955 311.111 281.303C310.359 281.65 310.032 282.541 310.379 283.292C310.726 284.044 311.617 284.371 312.369 284.024Z" fill="white"/>
<path d="M327.994 276.8C328.745 276.453 329.073 275.562 328.725 274.811C328.378 274.059 327.487 273.731 326.736 274.079C325.984 274.426 325.657 275.317 326.004 276.069C326.351 276.82 327.242 277.148 327.994 276.8Z" fill="white"/>
<path d="M343.618 269.577C344.369 269.229 344.697 268.338 344.349 267.587C344.002 266.835 343.111 266.508 342.36 266.855C341.608 267.203 341.281 268.094 341.628 268.845C341.975 269.596 342.866 269.924 343.618 269.577Z" fill="white"/>
<path d="M359.244 262.353C359.995 262.005 360.323 261.115 359.975 260.363C359.628 259.612 358.737 259.284 357.986 259.632C357.234 259.979 356.907 260.87 357.254 261.621C357.602 262.373 358.492 262.7 359.244 262.353Z" fill="white"/>
<path d="M374.869 255.129C375.62 254.782 375.948 253.891 375.6 253.14C375.253 252.388 374.362 252.061 373.611 252.408C372.859 252.755 372.532 253.646 372.879 254.398C373.226 255.149 374.117 255.477 374.869 255.129Z" fill="white"/>
<path d="M391.225 245.916C391.571 246.664 391.242 247.56 390.494 247.906C389.745 248.252 388.85 247.922 388.504 247.174C388.158 246.426 388.487 245.53 389.236 245.184C389.995 244.833 390.879 245.168 391.225 245.916Z" fill="white"/>
<path d="M406.128 240.677C406.88 240.33 407.207 239.439 406.86 238.687C406.513 237.936 405.622 237.608 404.87 237.956C404.119 238.303 403.791 239.194 404.139 239.945C404.486 240.697 405.377 241.024 406.128 240.677Z" fill="white"/>
<path d="M421.754 233.454C422.505 233.106 422.832 232.215 422.485 231.464C422.138 230.712 421.247 230.385 420.495 230.732C419.744 231.08 419.416 231.971 419.764 232.722C420.111 233.473 421.002 233.801 421.754 233.454Z" fill="white"/>
<path d="M335.06 292.085C335.812 291.737 336.139 290.847 335.792 290.095C335.444 289.344 334.554 289.016 333.802 289.364C333.051 289.711 332.723 290.602 333.07 291.353C333.418 292.105 334.309 292.432 335.06 292.085Z" fill="white"/>
<path d="M350.685 284.861C351.437 284.514 351.764 283.623 351.417 282.872C351.069 282.12 350.178 281.793 349.427 282.14C348.676 282.487 348.348 283.378 348.695 284.13C349.043 284.881 349.934 285.209 350.685 284.861Z" fill="white"/>
<path d="M366.309 277.638C367.061 277.29 367.388 276.399 367.041 275.648C366.693 274.896 365.803 274.569 365.051 274.916C364.3 275.264 363.972 276.155 364.319 276.906C364.667 277.657 365.558 277.985 366.309 277.638Z" fill="white"/>
<path d="M381.933 270.414C382.685 270.067 383.012 269.176 382.665 268.424C382.317 267.673 381.427 267.345 380.675 267.693C379.924 268.04 379.596 268.931 379.943 269.682C380.291 270.434 381.182 270.761 381.933 270.414Z" fill="white"/>
<path d="M398.29 261.201C398.636 261.949 398.307 262.844 397.558 263.19C396.81 263.536 395.914 263.207 395.568 262.459C395.223 261.71 395.552 260.815 396.3 260.469C397.065 260.129 397.944 260.452 398.29 261.201Z" fill="white"/>
<path d="M413.195 255.962C413.946 255.614 414.274 254.724 413.927 253.972C413.579 253.221 412.688 252.893 411.937 253.241C411.185 253.588 410.858 254.479 411.205 255.23C411.553 255.982 412.443 256.309 413.195 255.962Z" fill="white"/>
<path d="M428.818 248.738C429.569 248.391 429.897 247.5 429.55 246.749C429.202 245.997 428.311 245.67 427.56 246.017C426.808 246.364 426.481 247.255 426.828 248.007C427.176 248.758 428.067 249.086 428.818 248.738Z" fill="white"/>
<path d="M373.381 292.933C374.133 292.586 374.46 291.695 374.113 290.944C373.765 290.192 372.875 289.865 372.123 290.212C371.372 290.56 371.044 291.45 371.392 292.202C371.739 292.953 372.63 293.281 373.381 292.933Z" fill="white"/>
<path d="M389.005 285.71C389.757 285.362 390.085 284.472 389.737 283.72C389.39 282.969 388.499 282.641 387.747 282.989C386.996 283.336 386.668 284.227 387.016 284.978C387.363 285.73 388.254 286.057 389.005 285.71Z" fill="white"/>
<path d="M405.362 276.496C405.708 277.245 405.379 278.14 404.63 278.486C403.882 278.832 402.987 278.503 402.641 277.755C402.295 277.006 402.624 276.111 403.372 275.765C404.132 275.414 405.011 275.737 405.362 276.496Z" fill="white"/>
<path d="M420.267 271.258C421.019 270.91 421.346 270.019 420.999 269.268C420.651 268.516 419.76 268.189 419.009 268.536C418.258 268.884 417.93 269.775 418.277 270.526C418.625 271.277 419.516 271.605 420.267 271.258Z" fill="white"/>
<path d="M435.892 264.034C436.644 263.687 436.971 262.796 436.624 262.044C436.276 261.293 435.386 260.965 434.634 261.313C433.883 261.66 433.555 262.551 433.902 263.303C434.25 264.054 435.141 264.382 435.892 264.034Z" fill="white"/>
<path d="M427.334 286.542C428.085 286.195 428.413 285.304 428.065 284.552C427.718 283.801 426.827 283.473 426.075 283.821C425.324 284.168 424.996 285.059 425.344 285.81C425.691 286.562 426.582 286.889 427.334 286.542Z" fill="white"/>
<path d="M442.957 279.318C443.708 278.971 444.036 278.08 443.688 277.329C443.341 276.577 442.45 276.25 441.699 276.597C440.947 276.944 440.62 277.835 440.967 278.587C441.314 279.338 442.205 279.666 442.957 279.318Z" fill="white"/>
</g>
</svg>
