<svg width="206" height="40" viewBox="0 0 206 40" fill="none" xmlns="http://www.w3.org/2000/svg">
<g clip-path="url(#clip0_4002_575)">
<path d="M78.1657 32.0186H73.0414L66.0271 21.9572H61.4068V32.0186H57.0596V10.4205H61.4068V18.0423H68.6522C71.2143 18.0423 73.2934 16.1699 73.2934 13.8437C73.2934 11.5175 71.2143 9.64512 68.6522 9.64512H57.0596V5.73022H68.6522C73.6085 5.73022 77.6617 9.36143 77.6617 13.8437C77.6617 17.5127 74.8475 20.7468 70.9833 21.6735L78.1867 32.0186H78.1657Z" fill="black"/>
<path d="M101.098 25.4183L100.741 26.1937C99.9215 27.9337 98.5774 29.3899 96.8343 30.4301C95.0492 31.4892 93.0121 32.0188 90.975 32.0188C88.1398 32.0188 85.3467 30.9975 83.2886 29.0306C82.8896 28.6712 82.5115 28.2363 82.1335 27.7067C81.7975 27.2339 81.5035 26.7422 81.2515 26.2504C79.2144 21.9762 80.8525 17.0211 85.1577 14.4679C86.9008 13.4467 88.9169 12.8982 90.996 12.8982C93.8942 12.8982 96.7083 13.9951 98.7034 15.8864C99.1234 16.2835 99.5225 16.7185 99.8585 17.1913C100.131 17.5696 100.384 17.9668 100.594 18.3639L100.825 18.7989L86.9218 27.0448C89.1269 28.6145 92.2561 28.7658 94.6082 27.3474C95.3642 26.9124 95.9943 26.345 96.4983 25.6452L96.6873 25.3994H101.14L101.098 25.4183ZM90.996 16.5672C89.7149 16.5672 88.4759 16.9076 87.3838 17.5507C85.0317 18.9502 83.9396 21.579 84.6747 24.0188L95.0492 17.8533C93.8941 17.0211 92.4661 16.5672 90.975 16.5672H90.996Z" fill="black"/>
<path d="M107.567 12.9359C107.021 13.1629 106.517 13.4465 106.034 13.787C104.858 14.6002 103.934 15.6215 103.303 16.7751V12.9359H107.567ZM119.915 20.4064V32.0186H115.631V20.4064C115.631 18.4016 113.825 16.7751 111.599 16.7751C109.373 16.7751 107.567 18.4016 107.567 20.4064V32.0186H103.282V20.4064C103.282 18.0423 104.48 15.8673 106.58 14.4489C108.029 13.4465 109.772 12.917 111.599 12.917C116.177 12.917 119.915 16.2834 119.915 20.4064Z" fill="black"/>
<path d="M142.871 25.4182L142.514 26.1936C141.695 27.9335 140.351 29.3898 138.608 30.43C136.823 31.4891 134.786 32.0186 132.748 32.0186C129.913 32.0186 127.12 30.9974 125.062 29.0305C124.663 28.6711 124.285 28.2361 123.907 27.7066C123.571 27.2338 123.277 26.742 123.025 26.2503C120.988 21.9761 122.626 17.021 126.931 14.4678C128.674 13.4465 130.69 12.8981 132.769 12.8981C135.668 12.8981 138.482 13.995 140.477 15.8862C140.897 16.2834 141.296 16.7184 141.632 17.1912C141.905 17.5695 142.157 17.9666 142.367 18.3638L142.598 18.7988L128.695 27.0446C130.9 28.6144 134.03 28.7657 136.382 27.3472C137.138 26.9123 137.768 26.3449 138.272 25.6451L138.461 25.3993H142.913L142.871 25.4182ZM132.769 16.5671C131.488 16.5671 130.249 16.9075 129.157 17.5506C126.805 18.9501 125.713 21.5789 126.448 24.0186L136.823 17.8532C135.668 17.021 134.24 16.5671 132.748 16.5671H132.769Z" fill="black"/>
<path d="M172.922 12.917L166.937 32.0186H161.792L157.885 19.5364L153.979 32.0186H148.834L142.849 12.917H147.091L151.417 26.7231L155.743 12.917H160.07L164.396 26.7231L168.722 12.917H172.964H172.922Z" fill="black"/>
<path d="M175.128 5.74915H179.454V32.0186H175.128V5.74915Z" fill="black"/>
<path d="M191.13 30.9974L181.764 12.8981H186.426L193.461 26.5151L191.151 30.9974H191.13ZM205.999 12.917L191.991 39.9997H187.35L191.571 31.8484L193.902 27.3662L201.379 12.917H206.02H205.999Z" fill="black"/>
<path d="M45.9923 14.2973C45.9923 9.02068 41.225 5.82446 35.3657 7.16725L8.31628 13.3895V38.9592L14.2176 37.6164V17.3611L35.4077 12.5006C38.0119 11.8954 40.133 13.3327 40.133 15.6779C40.133 18.023 38.0119 20.4249 35.4077 21.0112L21.358 24.2263V29.5408L27.3223 28.1791L34.4627 32.9828L42.8001 31.0727L35.6387 26.2689C41.3931 24.8315 46.0343 19.536 46.0343 14.3351L45.9923 14.2973Z" fill="#0065FF"/>
<path d="M0 8.22646V34.3258L5.35529 33.0964V30.9215L2.41513 31.6023V9.83403L33.4548 2.72292V4.97351L35.8699 4.42504V-0.000488281L0 8.22646Z" fill="#0065FF"/>
</g>
<defs>
<clipPath id="clip0_4002_575">
<rect width="206" height="40" fill="white"/>
</clipPath>
</defs>
</svg>
