<svg width="165" height="33" viewBox="0 0 165 33" fill="none" xmlns="http://www.w3.org/2000/svg">
<g clip-path="url(#clip0_2027_916)">
<path d="M62.6085 26.1266H58.5041L52.8858 18.0676H49.1851V26.1266H45.7031V8.82711H49.1851V14.9319H54.9885C57.0407 14.9319 58.706 13.4322 58.706 11.569C58.706 9.70572 57.0407 8.20603 54.9885 8.20603H45.7031V5.07031H54.9885C58.9583 5.07031 62.2048 7.9788 62.2048 11.569C62.2048 14.5078 59.9508 17.0981 56.8556 17.8404L62.6253 26.1266H62.6085Z" fill="white"/>
<path d="M80.9762 20.8398L80.6903 21.4608C80.0342 22.8545 78.9577 24.0209 77.5615 24.8541C76.1317 25.7024 74.5 26.1265 72.8684 26.1265C70.5975 26.1265 68.3603 25.3085 66.7118 23.7331C66.3922 23.4453 66.0894 23.0969 65.7866 22.6727C65.5175 22.294 65.282 21.9001 65.0801 21.5063C63.4484 18.0827 64.7605 14.1139 68.2089 12.0688C69.605 11.2508 71.2199 10.8115 72.8852 10.8115C75.2065 10.8115 77.4606 11.6901 79.0586 13.205C79.395 13.5231 79.7146 13.8715 79.9838 14.2502C80.2024 14.5532 80.4043 14.8713 80.5725 15.1894L80.7575 15.5378L69.6218 22.1425C71.3881 23.3998 73.8945 23.521 75.7784 22.3849C76.384 22.0365 76.8886 21.582 77.2924 21.0215L77.4438 20.8246H81.0099L80.9762 20.8398ZM72.8852 13.7503C71.8591 13.7503 70.8666 14.023 69.9919 14.538C68.1079 15.659 67.2332 17.7646 67.822 19.7188L76.1317 14.7804C75.2065 14.1139 74.0627 13.7503 72.8684 13.7503H72.8852Z" fill="white"/>
<path d="M86.1579 10.8418C85.7205 11.0236 85.3168 11.2508 84.9299 11.5235C83.9879 12.1749 83.2478 12.9929 82.7431 13.9169V10.8418H86.1579ZM96.0488 16.8254V26.1265H92.6172V16.8254C92.6172 15.2197 91.1706 13.9169 89.3875 13.9169C87.6045 13.9169 86.1579 15.2197 86.1579 16.8254V26.1265H82.7263V16.8254C82.7263 14.9319 83.6851 13.1898 85.3673 12.0537C86.5279 11.2508 87.9241 10.8267 89.3875 10.8267C93.0546 10.8267 96.0488 13.5231 96.0488 16.8254Z" fill="white"/>
<path d="M114.435 20.8398L114.149 21.4608C113.493 22.8545 112.417 24.0209 111.021 24.8541C109.591 25.7024 107.959 26.1265 106.328 26.1265C104.057 26.1265 101.819 25.3085 100.171 23.7331C99.8514 23.4453 99.5486 23.0969 99.2458 22.6727C98.9767 22.294 98.7412 21.9001 98.5393 21.5063C96.9077 18.0827 98.2197 14.1139 101.668 12.0688C103.064 11.2508 104.679 10.8115 106.344 10.8115C108.666 10.8115 110.92 11.6901 112.518 13.205C112.854 13.5231 113.174 13.8715 113.443 14.2502C113.662 14.5532 113.864 14.8713 114.032 15.1894L114.217 15.5378L103.081 22.1425C104.847 23.3998 107.354 23.521 109.238 22.3849C109.843 22.0365 110.348 21.582 110.752 21.0215L110.903 20.8246H114.469L114.435 20.8398ZM106.344 13.7503C105.318 13.7503 104.326 14.023 103.451 14.538C101.567 15.659 100.692 17.7646 101.281 19.7188L109.591 14.7804C108.666 14.1139 107.522 13.7503 106.328 13.7503H106.344Z" fill="white"/>
<path d="M138.506 10.8267L133.712 26.1265H129.591L126.462 16.1286L123.333 26.1265H119.212L114.418 10.8267H117.816L121.281 21.885L124.746 10.8267H128.211L131.676 21.885L135.142 10.8267H138.539H138.506Z" fill="white"/>
<path d="M140.272 5.08545H143.738V26.1266H140.272V5.08545Z" fill="white"/>
<path d="M153.09 25.3085L145.587 10.8115H149.322L154.957 21.7184L153.107 25.3085H153.09ZM164.999 10.8267L153.779 32.5192H150.062L153.443 25.9902L155.31 22.4L161.298 10.8267H165.016H164.999Z" fill="white"/>
<path d="M36.8385 11.932C36.8385 7.70555 33.0201 5.14548 28.327 6.22101L6.66113 11.2048V31.6854L11.3879 30.6099V14.386L28.3606 10.4929C30.4464 10.0081 32.1454 11.1594 32.1454 13.0378C32.1454 14.9162 30.4464 16.84 28.3606 17.3096L17.1072 19.8849V24.1415L21.8844 23.0509L27.6036 26.8986L34.2817 25.3686L28.5456 21.5209C33.1547 20.3696 36.8722 16.1281 36.8722 11.9622L36.8385 11.932Z" fill="#0065FF"/>
<path d="M0 7.06953V27.9743L4.28943 26.9897V25.2476L1.93445 25.7929V8.35714L26.7963 2.66135V4.46401L28.7308 4.0247V0.47998L0 7.06953Z" fill="#0065FF"/>
</g>
<defs>
<clipPath id="clip0_2027_916">
<rect width="165" height="32.0388" fill="white" transform="translate(0 0.480469)"/>
</clipPath>
</defs>
</svg>
